<svg xmlns="http://www.w3.org/2000/svg" width="95" height="20" viewBox="0 0 95 20">
    <path fill="#FFF" fill-rule="evenodd" d="M84.594 16.883l3.18-2.847c3.467-3.025 5.778-5.691 5.778-8.87 0-3.568-3.2-5.166-6.37-5.166-3.862 0-5.301 1.945-5.301 3.17 0 .87.624 1.528 1.45 1.528.848 0 1.422-.551 1.573-1.51l.03-.183c.163-1.069.331-2.174 2.223-2.174 2.06 0 3.02 1.362 3.02 4.285 0 2.884-1.053 5.165-3.885 8.42l-5.32 6.174h12.19c.587 0 .712-.205.92-.787l.747-2.04H84.594zm-9.968-9.954c-1.352.022-2.79.49-3.792 1.128l.613-5.048 7.523-.122c.521-.008.63-.208.804-.772l.593-1.836-9.303.01-1.145 8.753.261.193.022.017.232.171.156-.15c.697-.672 1.966-1.48 4.05-1.513 2.929-.048 3.416 3.184 3.446 5.115.047 2.988-.996 6.198-4.064 6.247-2.18.036-2.33-1.043-2.503-2.293l-.04-.282c-.176-.856-.739-1.34-1.542-1.327-.8.013-1.393.625-1.38 1.424.03 1.905 2.436 3.358 5.478 3.309 4.367-.07 7.39-2.992 7.352-7.106-.07-4.448-3.686-5.968-6.76-5.918zM64.552 9.75c0-7.468-4.333-8.684-8.353-8.684h-.674v17.941h.674c5.497 0 8.353-2.815 8.353-9.257zm3.42.025c0 6.252-4.681 9.838-11.773 9.838h-5.145v-.205l.185-.054c.994-.288 1.086-.961 1.086-6.096V6.765c0-4.957-.087-5.742-1.002-6.068l-.014-.002h.008a2.12 2.12 0 0 0-.083-.028l-.18-.056V.435H56.2c7.196 0 11.773 3.317 11.773 9.34zm-26.51 9.667c3.24 0 5.762-2.812 5.762-9.354 0-6.543-2.682-9.28-5.762-9.28-3.08 0-5.761 2.737-5.761 9.28 0 6.542 2.522 9.354 5.761 9.354zm9.198-9.354c0 6.122-4.775 9.912-9.198 9.912-4.424 0-9.198-3.79-9.198-9.912 0-4.732 3.517-9.838 9.198-9.838 5.681 0 9.198 5.106 9.198 9.838zm-29.064 9.354c3.24 0 5.762-2.812 5.762-9.354 0-6.543-2.682-9.28-5.762-9.28-3.08 0-5.761 2.737-5.761 9.28 0 6.542 2.522 9.354 5.761 9.354zm9.198-9.354c0 6.122-4.775 9.912-9.198 9.912s-9.198-3.79-9.198-9.912c0-4.732 3.517-9.838 9.198-9.838 5.681 0 9.198 5.106 9.198 9.838zM4.471 1.21v7.304l2.58.021c2.412 0 2.407-1.127 2.636-2.53h.217v5.965h-.217c-.23-1.404-.224-2.531-2.636-2.531l-2.58.018v3.883c0 5.155.092 5.828 1.081 6.094l.19.052v.208H0v-.208l.19-.052c.99-.266 1.081-.939 1.081-6.094V6.846C1.271 1.691 1.18 1.02.19.752L0 .7V.517h11.986c.472 0 .631.174.74.812l.41 2.741h-.28l-.022-.053C12.161 1.939 10.94 1.21 7.805 1.21H4.471z"/>
</svg>
