<svg width="127" height="79" viewBox="0 0 127 79" fill="none" xmlns="http://www.w3.org/2000/svg">
<path d="M109.934 33.9838C109.915 33.9649 109.876 33.9744 109.837 33.9649C109.789 33.9177 109.741 33.8705 109.683 33.8233C109.577 34.0027 109.491 34.2105 109.346 34.3615C108.132 35.6552 106.754 36.6845 104.865 36.7506C104.364 36.7695 103.901 36.6939 103.506 36.2407C102.928 35.5797 102.967 34.7393 102.658 34.0027C102.331 33.2284 102.533 32.4163 102.668 31.6231C102.697 31.472 102.822 31.302 102.957 31.1982C104.007 30.3766 105.067 29.5551 106.147 28.7525C107.496 27.7421 108.71 26.6845 109.163 24.9564C109.876 22.218 108.064 19.2529 104.913 20.6599C103.786 21.1698 102.928 22.133 102.311 23.1906C101.146 25.1925 100.076 27.8837 99.6808 30.1595C99.6519 30.3389 99.5459 30.5372 99.411 30.6599C98.8906 31.151 98.3317 31.5948 97.8017 32.0764C96.6165 33.1623 95.4601 34.6448 94.1014 35.5136C93.7931 35.7119 93.4365 35.8535 93.0703 35.8063C92.6945 35.7591 92.3862 35.4947 92.1742 35.1925C91.4129 34.0688 91.4707 32.5391 91.7405 31.2737C92.1356 29.3757 94.1303 25.7591 92.1356 24.2482C91.6538 23.8799 91.6442 23.5494 91.8658 23.0962C91.9333 22.9545 92.0296 22.8129 92.0874 22.6618C92.338 22.0103 92.7042 21.3493 92.2513 20.641C91.3455 19.2529 89.3989 18.3275 87.886 19.4984C87.3271 19.9328 86.9995 20.6033 86.7297 21.2548C86.6237 21.5192 86.5081 21.7931 86.5177 22.0858C86.537 22.9451 88.4546 24.3238 87.7993 25.0697C87.4813 25.438 87.2019 25.8913 86.7971 26.1273C86.0262 26.5995 85.1686 26.9489 84.3495 27.336C84.3014 27.3549 84.2146 27.2794 84.1761 27.2699C84.2724 26.6845 84.4266 26.1273 84.417 25.5797C84.4074 25.032 84.3303 24.456 84.1086 23.9555C83.8003 23.2662 83.0197 23.0679 82.3645 22.9262C81.5358 22.7468 80.6589 22.7374 79.8012 22.709C78.7991 22.6807 77.9414 22.9734 77.5753 24.0027C77.5174 24.1727 77.5656 24.4276 77.662 24.5882C77.874 24.9375 77.7294 25.0036 77.344 25.0225C77.7873 25.0036 76.7947 24.0405 76.7176 23.9933C76.1106 23.6439 74.6747 23.5778 74.3568 24.3521C72.7186 28.2709 70.589 32.133 67.9583 35.5136C67.4765 36.1368 66.8019 36.6184 66.2141 37.1566C65.8672 37.4682 65.3372 37.4021 64.9614 37.1189C64.2387 36.5806 64.1134 35.778 64.0845 35.0225C64.0363 33.4645 63.9303 31.8969 64.2676 30.3578C64.3832 29.8384 64.5471 29.3002 64.8265 28.8469C65.2409 28.1765 65.7998 27.6004 66.2623 26.9583C67.1874 25.6741 68.1221 24.3899 68.9701 23.0584C69.8085 21.7647 70.6083 20.4427 71.3117 19.0735C72.0441 17.6571 72.4391 16.1179 72.5933 14.5221C72.709 13.2945 72.2175 12.5485 70.9841 12.2463C70.5408 12.133 69.9915 11.9536 69.5386 12.0197C67.0525 12.3691 65.9732 13.4456 64.9807 15.6458C64.1327 17.5154 63.6991 19.5362 63.198 21.5098C62.8896 22.7374 62.6102 23.9649 62.3404 25.2019C62.1476 26.0896 61.9742 26.9866 61.8104 27.8743C61.7236 28.3653 61.7622 28.6108 61.6176 29.0735C61.4538 29.6118 60.8275 30.1122 60.442 30.4994C60.0758 30.8677 59.7 31.2171 59.3435 31.5948C59.2086 31.7459 58.5726 32.1613 58.5244 32.2935C58.9388 31.1982 59.1604 30.3389 59.1604 28.9602C59.1604 27.4494 58.534 25.8157 57.1561 25.1453C56.2406 24.7015 55.1517 24.7581 54.1881 25.0886C53.1185 25.4569 51.7887 26.1368 51.2009 27.1283C50.7191 27.9404 50.2372 28.7619 49.8132 29.6023C49.5338 30.15 49.3411 30.7449 49.1098 31.3209C49.0616 31.302 49.0134 31.2926 48.9653 31.2737C49.2158 29.8856 49.476 28.4975 49.6976 27.1C49.9482 25.5608 50.1698 24.0121 50.3625 22.4635C50.4492 21.7836 49.7072 21.557 49.1387 21.6609C48.2811 21.8214 47.992 22.7374 47.8474 23.5306C47.4909 25.4852 46.7682 27.3172 45.872 29.0641C44.8506 31.0565 43.6846 32.9829 42.5282 34.8998C41.9597 35.8346 41.3044 36.7223 40.6299 37.5816C40.071 38.2898 39.4446 38.9413 38.8183 39.5929C38.2305 40.1878 37.7005 40.0462 37.4307 39.2529C37.4114 39.1963 37.4018 39.1207 37.3728 39.0735C36.8525 38.2331 36.284 37.4021 35.8214 36.5334C35.6865 36.269 35.7058 35.8346 35.8311 35.5513C37.2861 32.3974 38.7894 28.7997 41.1984 26.2501C41.6513 25.7685 42.1428 25.117 41.6321 24.5976C40.9961 23.9555 40.0228 24.1349 39.2037 24.1632C38.269 24.1916 37.6138 26.1368 37.0067 26.7128C36.6983 27.0055 36.4478 27.6193 36.2069 27.9876C35.8889 28.4786 35.5998 28.998 35.3203 29.5173C35.1469 29.8384 33.5665 32.1897 33.6629 32.3691C33.3931 31.8497 33.1714 31.4154 32.9305 30.981C32.1789 29.6307 31.4369 28.2803 30.666 26.9394C30.4251 26.5145 30.0011 26.5145 29.7217 26.9017C29.6831 26.9583 29.6157 27.015 29.5482 27.0528C28.9604 27.3266 28.893 27.6193 29.2302 28.1859C29.6446 28.8941 30.0493 29.6023 30.4155 30.3389C30.9358 31.3776 31.3791 32.4635 31.9476 33.4739C32.4391 34.3427 32.4102 35.1075 31.9476 35.9574C31.3984 36.9772 30.8395 38.0065 30.4637 39.0924C29.8855 40.7449 28.9219 42.2652 28.7195 44.0594C28.575 45.3436 30.56 47.2605 31.4176 45.523C31.6682 45.0225 31.8706 44.5032 32.0826 43.9933C32.6125 42.7279 33.1233 41.4531 33.6629 40.1878C33.9134 39.5929 34.2025 39.0169 34.4723 38.4314C34.5302 38.4314 34.5976 38.4409 34.6554 38.4409C34.8771 38.7525 35.118 39.0546 35.3203 39.3757C35.7732 40.0556 36.2647 40.6883 37.0741 40.9999C37.951 41.3398 38.8279 41.5192 39.5795 40.7449C40.3697 39.9234 41.2081 39.1396 41.8826 38.2331C42.9137 36.845 43.8291 35.3625 44.7735 33.9177C45.1782 33.2945 45.5444 32.6524 45.9202 32.0197C45.9587 32.0291 46.0069 32.0386 46.0455 32.048C46.0358 32.1897 46.0358 32.3219 46.0166 32.4635C45.8238 33.5683 45.6118 34.6732 45.448 35.7874C44.9855 38.5258 44.9277 41.3209 44.3784 44.0405C44.0797 45.5419 43.8484 47.0528 43.675 48.5636C43.54 49.744 43.0101 51.4343 43.8388 52.4541C44.6 53.3795 45.7949 53.049 46.1997 52.0575C46.2767 51.8781 46.2575 51.6514 46.3731 51.5098C47.2789 50.3483 47.3271 48.4409 47.5873 47.0339C47.9342 45.1453 48.31 43.2662 48.7725 41.4059C48.9749 40.5938 49.1772 39.7817 49.3989 38.9791C49.4663 38.7241 49.6205 38.4597 49.9578 38.6203C50.7865 39.0169 51.6345 39.0074 52.4825 38.7525C54.1399 38.2614 55.5564 37.1661 56.8284 36.0518C57.5608 35.4097 58.3124 34.7676 59.0255 34.116C59.6711 33.5306 60.3167 32.8318 61.1166 32.4352C61.7911 32.0952 61.5502 33.4267 61.5598 33.7666C61.5887 34.5221 61.6562 35.2681 61.8393 35.9952C61.9067 36.2596 61.9742 36.5334 62.0416 36.7978C62.3885 38.1953 64.1809 39.0074 65.5396 39.1113C68.3148 39.3285 70.0686 37.0622 71.3503 34.9753C71.4081 34.8809 71.4948 34.7865 71.6104 34.6448C71.6779 34.8148 71.7357 34.8998 71.7357 34.9848C71.755 35.7213 72.0055 36.3351 72.391 36.9961C73.2197 38.4314 75.3493 38.7997 76.8911 38.4975C80.1096 37.8743 82.2296 33.7855 83.0005 30.9527C83.2414 30.0556 83.8388 29.5834 84.7061 29.4985C86.3057 29.3285 87.7319 28.7902 88.9171 27.7232C89.2448 27.4305 89.5435 27.0905 89.8711 26.7506C89.9386 26.8544 89.9771 26.8922 89.9771 26.93C89.9771 26.9867 89.9578 27.0528 89.9482 27.1189C89.5724 28.6014 89.1388 30.0745 88.8208 31.5664C88.2233 34.3804 89.7266 37.7893 92.9451 38.1481C95.6721 38.4503 97.503 36.0896 99.2665 34.456C99.3435 34.3804 99.4495 34.3332 99.6326 34.2105C99.7483 34.541 99.8928 34.8054 99.9313 35.0886C100.211 36.7506 101.348 38.2709 103.159 38.4786C105.675 38.7714 108.623 37.0528 110.126 35.1925C110.666 34.5126 110.637 34.4937 109.934 33.9838ZM106.532 23.3889C106.667 24.9092 105.405 26.4201 103.988 27.0244C104.566 25.5608 105.424 24.4465 106.532 23.3889ZM66.8212 19.4418C67.1392 18.6391 67.4861 17.8459 67.833 17.0622C68.2281 16.1557 68.8448 15.4475 69.6446 14.8714C69.7121 14.8903 69.7699 14.8998 69.8374 14.9187C69.8566 15.0886 69.9241 15.268 69.8952 15.4286C69.7025 16.4862 69.3459 17.4966 68.787 18.422C67.9487 19.8289 67.1007 21.2265 66.243 22.624C66.2045 22.6901 66.137 22.7279 65.9732 22.879C66.137 21.6137 66.3972 20.5088 66.8212 19.4418ZM49.4952 33.9649C49.4085 33.9366 49.3122 33.8988 49.2254 33.8705C49.3507 33.4645 49.4278 33.0395 49.6012 32.6618C49.9674 31.8403 50.3721 31.0471 50.7769 30.2444C50.8732 30.0461 50.9985 29.8573 51.1141 29.6684C51.1816 29.7062 51.249 29.7345 51.3165 29.7723C50.6998 31.1698 50.0927 32.5674 49.4952 33.9649ZM56.5972 27.6665C56.549 28.0537 56.5008 28.4409 56.4141 28.828C56.1443 30.0934 55.8841 31.3776 55.4986 32.6146C55.1806 33.6344 54.5543 34.5032 53.7545 35.2586C52.7908 36.1557 51.8754 37.1094 50.536 37.4588C50.3529 37.506 50.1023 37.5155 49.9481 37.4305C49.8711 37.3833 49.8903 37.0811 49.9385 36.9111C50.2372 35.9102 50.536 34.9092 50.8636 33.9177C51.2298 32.8223 51.6152 31.7364 52.0296 30.6599C52.4247 29.6307 52.9836 28.6864 53.7352 27.8837C54.2556 27.336 54.9494 26.9961 55.6817 26.7978C55.9612 26.7222 56.4333 26.5145 56.6068 26.7978C56.7513 27.0528 56.6261 27.4116 56.5972 27.6665ZM80.3023 30.2444C79.9843 31.0754 79.6374 31.9158 79.2327 32.709C78.9243 33.3228 78.5389 33.8988 78.1534 34.4749C77.98 34.7393 77.7198 34.947 77.5174 35.1925C77.1994 35.5608 76.92 35.9479 76.5924 36.3068C76.3418 36.5806 76.0431 36.8545 75.6095 36.7317C75.1662 36.6089 74.7518 36.4012 74.7133 35.8818C74.6748 35.2114 74.5977 34.5315 74.7133 33.88C74.8867 32.8035 75.1566 31.7459 75.4649 30.6977C75.86 29.3663 76.3225 28.0537 76.7658 26.7317C76.8525 26.4862 77.0164 26.269 77.1802 25.9857C77.3536 26.5523 77.4211 27.0811 77.662 27.5155C77.9318 27.997 78.3076 28.4409 78.7316 28.8091C79.146 29.168 79.6856 29.3757 80.1385 29.6968C80.2541 29.7912 80.3505 30.0934 80.3023 30.2444ZM81.3238 27.3927C81.3045 27.4494 80.919 27.506 80.8805 27.4494C80.6878 27.1755 80.5625 26.8639 80.4083 26.5617C80.4565 26.5523 80.5047 26.5334 80.5529 26.5239C80.389 25.9007 80.8227 25.6363 81.237 25.3625C81.5069 25.1831 81.7959 25.3436 81.7381 25.6741C81.6321 26.2501 81.4876 26.8261 81.3238 27.3927ZM26.1177 41.8214C25.9346 42.1425 25.607 42.4635 25.2697 42.6241C23.8532 43.2662 22.2921 43.6344 20.8371 44.2199C20.6251 44.3049 20.4131 44.3899 20.1818 44.4465C19.8734 44.5221 19.5458 44.5504 19.2278 44.5976C16.7802 44.9281 13.4942 46.5806 11.7501 44.0122C10.6323 42.3691 10.3817 39.9423 10.5455 38.0159C10.8539 34.3238 11.673 30.6599 11.9043 26.9772C11.9428 26.439 11.6923 25.8913 11.6248 25.3436C11.6055 25.1736 11.7501 24.8431 11.8561 24.8337C12.4439 24.7392 12.5692 24.4182 12.627 23.8705C12.8004 22.1519 13.0702 20.4522 13.2822 18.743C13.369 18.0159 13.2822 17.2605 13.4653 16.5617C13.8026 15.2586 13.9182 15.2397 15.0939 15.5797C15.6624 15.7213 16.3658 15.6552 16.9536 15.4947C20.5865 14.4843 24.6241 11.5192 28.5364 12.0669C29.5193 12.2085 30.1938 13.0584 30.0204 14.0027C30.0011 14.0971 29.9337 14.2671 29.8855 14.2765C28.3341 14.3332 26.7826 15.3341 25.289 15.7307C22.4752 16.4767 20.1529 18.0254 17.1656 18.0915C17.0596 18.0915 16.944 18.1009 16.8766 18.1764C16.8187 18.2425 16.8091 18.3275 16.8091 18.4125C16.7706 19.8856 16.7898 21.4626 16.4815 22.9073C16.3851 23.7005 16.2984 23.6816 17.0596 23.5778C19.0351 23.3134 21.0105 23.0018 22.9956 22.8129C23.6797 22.7468 24.4796 22.8223 25.077 23.1151C25.4817 23.3134 25.7419 23.9744 25.8768 24.4748C26.031 25.0697 25.3565 25.2492 24.9999 25.3908C23.5448 25.9951 22.0416 26.3351 20.4034 26.3068C18.9773 26.2879 17.5511 26.6184 16.1249 26.8261C15.99 26.845 15.7973 27.0811 15.778 27.2322C15.566 28.9036 15.3637 30.5655 15.2191 32.2463C15.0746 33.9272 14.9975 35.6174 14.9108 36.8828C14.9589 38.9697 15.0071 40.6127 15.6913 42.1897C15.8744 42.6146 16.2117 42.6241 16.3851 42.6146C18.1389 42.4541 19.6614 41.6231 21.4152 41.3493C22.3789 41.1982 23.6316 40.6505 24.5952 40.7166C24.8939 40.7355 26.3972 41.3304 26.1177 41.8214Z" fill="#57696D"/>
<path d="M102.477 69C102.109 68.9843 101.733 68.7175 101.565 68.333C101.403 67.9641 101.419 67.5011 101.603 67.0852C101.741 66.7713 101.979 66.4966 102.201 66.2298C102.937 65.343 103.865 64.6054 104.77 63.8991L105.375 63.4204C106.296 62.6906 107.223 61.9765 108.136 61.2309C108.527 60.917 108.941 60.6188 109.401 60.4305C109.708 60.3049 110.145 59.8341 110.467 59.8262C109.8 59.8419 109.11 60.1558 108.435 60.2735C107.239 60.4776 106.02 60.5717 104.816 60.7052C100 61.2623 95.1618 61.5998 90.3233 61.5998C86.4587 61.5998 82.7244 61.38 79.2355 60.9406C78.3691 60.8307 77.5102 60.6973 76.7051 60.5325C72.8098 59.7635 69.8423 58.5314 67.6263 56.7657C66.3381 55.7377 65.3566 54.537 64.7125 53.2029C64.3751 52.5359 64.0991 51.8217 63.8383 51.1312C63.639 50.6211 63.4396 50.1031 63.2249 49.6009C63.0946 49.2948 62.8262 48.5336 63.1636 48C63.2709 48.0628 63.3553 48.0785 63.4626 48.0785C63.5163 48.0785 63.5776 48.0706 63.6313 48.0706L63.7923 48.0628C64.2064 48.0628 64.6128 48.2433 64.8812 48.5493C65.3259 49.0516 65.5023 49.8991 65.6786 50.7309C65.8243 51.4058 65.97 52.1043 66.2691 52.6614C66.9592 53.9641 67.956 55.102 69.1522 55.9574C73.7223 59.2377 79.8873 59.4731 85.3239 59.6771L85.6152 59.685C87.1872 59.7478 88.7974 59.7791 90.3847 59.7791C96.657 59.7791 103.106 59.3004 109.547 58.3587L110.513 58.2175L109.639 57.7702C108.91 57.3935 108.19 56.9854 107.469 56.5852C105.767 55.6356 104.011 54.6469 102.101 54.0191C101.595 53.8543 101.472 53.3991 101.526 53.0381C101.58 52.685 101.833 52.3004 102.247 52.3004C102.331 52.3004 102.423 52.3161 102.523 52.3475C104.371 52.9518 106.112 53.9249 107.791 54.8666C109.869 56.028 112.016 57.2287 114.416 57.778C114.784 57.8643 114.96 58.2018 114.991 58.4922C115.029 58.7747 114.953 59.167 114.608 59.3475C112.453 60.4462 110.229 61.8666 107.814 63.6794C106.748 64.4798 105.698 65.3352 104.685 66.2298C103.888 66.9283 103.451 67.6031 102.937 68.3879C102.822 68.5605 102.707 68.7489 102.577 68.9372C102.561 68.9529 102.538 68.9922 102.531 69H102.477Z" fill="#57696D"/>
</svg>
