<svg width="100" height="38" xmlns="http://www.w3.org/2000/svg"><path d="M16.707 18.004c.136.204.068.204.068.34 0 .102-.102.238-.17.408-.816.204-1.428.408-1.768.408.068.272.816 1.53.68 3.026-.136 1.326-1.36 3.468-2.38 4.284-.238.17-.136-.034-.408.306-.102.102-.204.238-.34.306-.204.204-.442.442-.68.646-.408.306-.646.408-1.088.612-.17.034-.034 0-.204.068-1.156.374-1.02.51-1.326.68-.102.034-.136 0-.272.068-.204.068-.034.034-.17.102l-1.394.578c-.17.102-.272.17-.408.238-.306.136-.17.034-.646 0-.238.136-.918.34-1.326.306-.544 0-1.122.068-1.632 0-1.462-.204-1.734-.816-2.482-1.462l-.17-.17c0-.238 0-.238-.102-.442-.136-.272-.034-.102-.034-.306v-.918c.034-.034.068 0 .068 0 0-.034.034-.068.034-.102 0-.034.034-.068.034-.102l.034.034c.068-.136.204-.272.272-.544l-.102.102-.034-.17.68-.85c.136-.204.578-.918.646-.952.068-.034.816-.544.986-.68h.034v-.034c.068-.068.272-.272.408-.442l.102-.102c.136-.136.238-.272.374-.374l.952-.68c.136-.102.068-.102.238-.204l1.326-.748c.102-.034.204-.068.272-.136.714-.476 1.088-.646 1.938-.986.612-.204 1.258-.612 1.768-.748l.204-.136 2.278-.918c-.068-.238-.17-.272-.34-.476-.102-.136-.068-.102-.136-.204-.85-1.088-3.06-1.734-4.284-2.21-.578-.204-1.054-.272-1.598-.476L3.685 13.89c-.51-.204-.816-.476-1.292-.68-.102-.204-.17-.204-.306-.374-1.258-1.258-.714-2.516-.714-2.958l.136-.068c.238-.918 1.054-1.326 1.7-1.836.17-.136.374-.272.51-.374l.272-.136c.374-.204.646-.544 1.496-.782.442-.136.646-.34 1.224-.51 1.088-.306 1.938-.646 3.196-.68h.408c.204 0 .272-.034.408-.034.204 0 .238.034.442-.034.612.204.952.136 1.802.68 1.258.85 1.802.986 2.482 1.938.612.782.374 1.02.408 1.224l-.204.102c-.68-.238-1.394-.034-1.802-.714.17-.136.204-.102.306-.272-.136-.136.17 0-.17-.136-.238-.102-.442-.034-.68-.034-.306-.034-.714-.102-1.054-.136-.306-.034-.646.034-.918.068l-.884.068c-.952.136-.714.136-1.564.374-.782.204-1.87.612-2.448.952l-2.686 1.734c-.204.204-.544.918-.578 1.258.374.238 1.02.442 1.53.646.612.204 1.02.306 1.7.51 1.326.374 3.298 1.122 4.59 1.768 1.054.51 2.482 1.632 3.026 2.516.306-.034.408-.068.68-.136l.884-.204c.17.102.544.068.85.102.408.034.136.102.272.272zM4.739 23.92c-.006.003-.884.476-.952.544-.068.068-.748.68-.816.782a2.632 2.632 0 0 1-.34.408c-.136.17-.578.714-.714.85-.102.17-.408.578-.442.714-.034.17.17.578-.068.612-.034.034-.068.034-.068.034 0 .136-.034.272-.034.408l.204.714c.646.272.476.272 1.122.17 1.564-.17 1.19.238 3.128-.85 1.088-.646.646-.374 1.598-1.054.102-.068.204-.17.374-.272l1.972-1.394c1.564-1.36 3.502-3.944 3.536-5.95-.238 0-1.7.612-2.312.816-.34.102-.102-.068-.34.102.034-.204.034-.034-.102-.136l-.408.238-1.904.85c-.17.102-.272.136-.408.204-.204.102-.238.204-.442.306-.646.272-.136-.034-.952.476-.272.17-.544.34-.816.544-.17.136-.272.204-.408.306-.238.136-.204.102-.442.306-.034.034-.102.068-.17.17a.962.962 0 0 0 .204.102zm25.364-8.33c0 1.122.17.646-.102 1.802-.136.68-.068.918-.476 1.564-.306.442-.476 1.088-.646 1.36l-.17.238c-.204.204-.102.034-.272.238-.544.714-.136.17-.51.51-.102.102-.136.17-.238.272-.884.918-1.802.51-2.21.544-.612.034-1.02.034-1.462-.374l-.544-.374c.204-.34.136-.17.646-.306 1.666-.442 1.088.578 2.312-1.19.578-.782.476-.612.816-1.836.578-2.142.816-3.91.136-6.12l-.51-.102c-.374.34-1.462 1.53-1.632 2.21l-.204-.034.068.17c-.204.136-.068.068-.34.476l-.782 3.06c-.136.442-.136.85-.204 1.36-.102.918-.374 1.598-.646 2.448-.34 1.156-.476 2.89-.68 3.944-.102.442-.238.85-.306 1.224-.102.476-.102 3.128-.238 4.148-.068.544.034.884-.034 1.326-.102 1.02.306 2.04-.986 1.734-.918-.204-1.156-.646-1.53-1.496-.408-.986-.306-1.462-.442-2.448-.306-2.108-.306-3.57-.51-5.372-.204-2.006-.034-3.502-.034-5.338.034-1.462.408-3.774.374-5.542 0 0-.102-.136-.136-.238-.068-.272-.034-.204 0-.51.374-.238.612-.102 1.02-.238.238.136.034.102.306.17.34.136.272 0 .578.238 0 0 .102.068.17.102.17.136-.034-.034.102.068.34.17 1.02.918.952 1.53l-.136 3.978c-.034.476-.17 4.318 0 4.454 0-1.02.544-2.516.748-3.434.204-.884.102-1.156.204-1.972.068-.442.306-1.258.442-1.632.34-1.122.408-2.38.952-3.23.51-.816 1.122-1.734 1.768-2.244.884-.68 2.074-.238 2.822.408 1.224 1.088 1.632 2.686 1.564 4.454zm9.792 0c.102.952.272-.136.272 2.482 0 0-.102.544-.17.68-.034.17-.102.748-.102.748h-.068c-.034.034-.034.068-.034.068 0 .034 0 .034-.034.034v.068c-.102.17-.068-.034-.102.238-.034.204-.068.408-.102.578-.136.646-.136.612-.374 1.122-.204.51.136.034-.102.442l-.748 1.36-.204.17c-.102.442-.986.952-1.156 1.088-.646.51-.952.374-1.666.51-.952.204-2.176-.748-2.72-1.564-1.496-2.244-1.394-4.556-.34-7.072.238-.578.782-1.394 1.088-1.87.816-1.224.578-1.088 1.632-1.258.068-.306.476-1.122.782-1.326.374-.238 1.428-.102 1.768 0 .578.068 1.19.714 1.496 1.054.272.306.272.374.51.748.272.442.17.442.204 1.054l.136-.136c.034.374-.034.442.034.782zm-.782 1.02c0-1.122-.17-.306-.34-1.734-.068-.714-.102-.68-.442-1.19-.17-.272-.408-.578-.748-.646l-.034.034-.102.17c-.238.408-.102.17-.204.476-.068.204 0 .034-.102.17 0 .442-.102.238-.204.646-.068.204-.034.476-.034.782 0 1.53-.068 1.972.68 2.72 0 .068.034.136.034.204.068.204.068.17.068.272 0 .102-.068.17-.136.238-.034.068-.204.102-.408.034-.102-.034-.17 0-.238.068-.544-.374-1.088-.918-1.462-1.326-1.088 1.292-1.938 4.624-.782 6.46.612-.136 1.462-.442 1.87-.918.17-.17.408-.34.476-.51.17-.102.136.136.136-.238.204-.408.476-.782.714-1.224.204-.306.34-.68.442-1.054 0 0 .204-.476.204-.544 0-.068.102-.578.102-.612 0-.034.238-.374.238-.374.238-.408.272-1.36.272-1.904zm12.206.204c.374.748-.476 2.448-.782 3.196-.85 1.802-.306.714-.646 1.734-.238.646-.442 1.156-.646 1.836-.102.306-.612.748-.714 1.054-.136.408-1.7 2.21-2.346 2.448-1.258.442-2.72-.544-3.162-1.258l-.17-.17c-.102-.238-.544-.85-.714-1.36-.136-.408-.272-1.36-.34-1.836-.238-1.496.272-8.738.51-10.302.204-1.19.102-3.094.238-4.284l.034-.034c-.34-.034-.646-.034-.884-.068-.816-.068-1.224-.238-1.938.102-.51.204-.918.272-1.292.408-.238-.034-.51-.068-.612-.17-.068-.102-.238-.272-.238-.374 0-.068.068-.374.102-.51.034-.068.034-.136.068-.238l.102-.068c.17-.068.374-.102.544-.204.068-.034.17-.068.272-.136.034 0 .034 0 .034-.034 1.054-.34 2.584-.17 3.536-.034l.408.102c.034-.374.068-.782.136-1.156.068-.578-.034-.714 0-1.19.034-.374.374-.646.408-1.088.034-.578-.306 0-.068-1.224.748-.374 1.734-.408 2.38.034.408.238.374.136.544.578.102.306.068.17.204.408.034.272-.272 2.788-.34 3.57v.17l-.034.646h.17l.918-.068c.544-.034 1.496-.51 2.312-.952.17-.034.34-.068.544-.136.476-.102.51-.136.68-.17.17-.034.102 0 .204.034.068.034.136.272.136.34 0 .102-.068.442-.102.544 0 .068-.136.238-.306.408-.816.442-1.768.782-2.108.952-.578.34-1.02.272-1.292.34 0 0-1.054-.068-1.19-.068v.068c.034.748-.68 11.152-.68 11.152-.102.374-.204.442-.204.884-.034 1.734-.102 1.904.068 3.706.068.748.136.986.442 1.564.204 0 .714-.408.952-.748l2.414-4.216c.374-1.224 1.19-3.026 1.904-4.114.204-.34.068-.34.34-.544 0 .034.034.034.034.068l.17.408zm7.99.782c.272.748.34.544.068 1.462-.204.612-1.054 2.244-1.258 2.822l-.85 2.414c-.068.238-.034.306-.238.884l-.136.272c-.17.34-.102.102-.306.374-.272.34 0 .17-.272.476-.374.442-.51.408-.918.646-1.768.408-2.584-.204-3.536-1.19-1.02-1.054-1.326-2.618-1.53-4.25a38.329 38.329 0 0 1-.238-4.93c.102-2.72.238-2.618.442-4.692.136-1.292.408-3.298.714-4.522.884-3.434.408-2.074 1.666-4.93.136-.374 1.02-1.462 1.122-1.53.306-.238.544-.034.918-.068 1.088-.102 1.598-.034 2.55.646.51.374.34.51.578.646.34 1.122.34.612.238 2.346-.068.918 0 1.496-.238 2.414-.306 1.394-1.088 3.638-1.734 4.93l-1.224 2.788c-.238.646-1.496 3.026-1.938 3.434l.068 2.176c.068 1.088.34 5.066 1.156 5.746.442-.17.85-.68 1.054-1.02l.17.068c.204-.136 0-.068.102-.204.034-.136.272-.544.34-.646.238-.374.204-.306.374-.782.17-.34.51-1.156.544-1.53l.544-1.496c.136-.306.51-.102.51-.646.204-.306.17-.34.238-.714.136-.102.068.136.102-.136.068-.102.068-.034.102-.238v-.102c.034 0 .068-.034.034-.068l.17-.272c.102-.204.102-.204.204-.306l-.102-.204a.403.403 0 0 1 .408-.272c0 .034.034.034.102.204zm-5.712-4.42c-.068.578-.238 1.122-.238 1.768.272-.272.306-.34.442-.714.102-.34.204-.442.34-.782l1.326-3.026 1.36-4.182c.102-.374.068-.544.068-.952.068-1.258.442-2.992-.612-3.434-.442.204-.272.034-.51.51-.204.374-.238.204-.34.714-.068.408-.102.272-.238.816l-.51 1.462c-.17.374 0 .544-.306 1.666l-.68 4.284c-.034.714-.068 1.224-.102 1.87zm11.152 4.828c-.068.068-.068-.136-.068.136.102.476.102.782 0 1.258-.068.374-.782 1.87-.85 2.21-.068.578-.034.578-.34 1.088-.136.238-.17.272-.272.544-.034.17-.136.374-.204.544-.102.204-.204.238-.374.408-.782.748-2.244.51-2.55.238-.544-.408-.918-.51-1.292-1.088-.918-1.326-.646-3.434-.476-4.964.136-1.428.068-2.856.544-4.25.204-.578.068-.204.136-.612l.612-.204c.544-.068 1.666.374 1.768.408.646.544 0 1.02-.102 2.38-.068.85-.102 1.666-.17 2.55-.136 1.19-.476 4.148.272 5.202.374-.136 1.02-1.156 1.02-1.19.034-.068.034-.17.068-.272l.17-.34c.136-.238.204-.442.306-.714l1.258-3.298c.102-.272.34-.85.476-.306l.068.272zm-3.842-6.46c-.544.272-1.904.272-1.802-.646l.306-1.802c.068-.272.102-.306.102-.612.816-.17.85-.238 1.564.034 1.156.408.85.476.646 1.53-.204.85-.238.51-.408 1.088-.068.306 0 .238-.408.408zm17.068 5.712c.102.204.204.34.306.544-.238.986-.136 1.088-.68 1.734-.34.476-.204.476-.442.816l-.68.68c-.136.204-.476.442-.612.68-1.632 1.632-2.278.136-2.312 2.72l-.476 4.046c-.068.544-.204.816-.238 1.36-.034.476-.102.816-.204 1.292a5.524 5.524 0 0 0-.136.646c-.408 1.36-.306.646-.612 1.564l-.17.204c-.374.51 0 .17-.816 1.122-.374.476-.272.034-.986.782-.17.204-.408.238-1.156 1.02-.782.816-1.326.714-1.87.748-.918.034-1.496-.612-1.836-.85l-.204-.204c-.102-.408-.272-.272-.34-.952-.068-.408 0-.884.034-1.258v-.204c.17-.986.102-1.496.442-2.414.204-.51.748-1.564 1.088-2.006l2.924-3.298c.272-.272.408-.442.646-.714.612-.68 1.054-.816 1.156-1.496l.476-5.1-.714.85c-.034.068-.136.238-.17.34-.68 1.19-1.496 1.87-2.584 2.516-.306.17-.34.306-.544.476-.782.714-2.074.034-2.686-.612-.204-.238-.272-.272-.408-.612-.136-.34-.238-.408-.34-.714-.68-2.38.17-3.74 1.122-5.746.408-.782 1.768-2.244 2.482-2.618.578-.34 1.7-.102 2.278.102.476.17.748.85.918 1.326 0 0-.034.034-.034.204 0 .204-.034.476-.068.612 0 .136-.136.748-.17.986-.034.102-.068.238-.136.374a3.158 3.158 0 0 1-.442-.136c-.408-.442.034-1.326-.374-2.176-.238.136-.51.374-.68.714-.136.306-.578.544-1.258 1.666-.578.952-1.054 1.904-1.326 3.06-.136.476-.17.816-.272 1.258-.136.51-.102.578-.068 1.122.918-.17 2.448-1.292 3.06-2.006l.986-1.122c.374-.612.34-.714.68-1.156.204-.272.136-.136.204-.408a.886.886 0 0 0 .102-.374.994.994 0 0 0 .238-.408c.068-.238.204-.714.238-.782.034-.102.102-.714.102-.714s.034-.068 0-.17v-.102h.17c.238-.034.272.068.476.068.102 0 .068.17.204.238.102.068.306-.17.374.204.272.238 0-.204.51.442 1.598 2.074.816 1.598.85 3.57 0 .612-.068 1.666-.17 2.346a.831.831 0 0 0 .374-.306l1.02-.476c.374-.578.646-.748 1.02-1.156.17-.204.238-.442.408-.68l.306-.986c.136-.204.238-.442.34-.612a.597.597 0 0 1 .136-.17c.17-.17 0 0 .136-.102.306.238.238.068.408.408zm-8.33 13.838c.408-1.088.85-3.638.816-4.76-.646.476-1.02 1.292-1.734 1.802-.408.272-.306.408-.816.986-1.496 1.7-.578.544-1.496 2.21-.238.442-.408.748-.51 1.36-.17.884-.442 2.584-.136 3.332 1.19-.102 2.346-2.006 3.026-3.026.408-.646.578-1.122.85-1.904zm20.332-4.352l.17.476c-.204.204-.204.238-.442.306-.442.17-.986.272-1.462.136-.782-.238-2.142-.68-2.686-1.36-.476-.612-.884-.85-1.19-2.244-.306-1.564.136-5.644.34-7.446.068-.442 0-.68-.034-1.122-.714.476-2.244 3.162-2.516 4.522-.17.782.068.68-.51 1.666l-.272.476c-.272.544-.306 1.054-.408 1.496-.204.85-.272.578-.068 1.7.102.578.034.442 0 .952-.17 1.734-.374.748-.918 1.258-.204-.17-.646-.272-1.224-.646-.442-.272-.612-.85-.748-1.564-.306-1.632-.68-4.488-.748-6.154-.034-1.088-.102-2.686-.068-3.774.034-.544.034-1.156.068-1.734.102-1.632.204-2.006.374-3.434.102-1.19.272-2.21.51-3.332.238-1.156.408-2.108.748-3.196.238-.918.408-1.394.85-2.176.17-.306.204-.272.408-.544 1.054-1.326 1.598-.918 2.754-.85 1.02.068 1.938.544 2.312 1.7.272.816.306 2.958.068 3.672-.102.272-.17.51-.238.782l-.612 2.278c-.34 1.122-.782 1.972-1.156 2.89l-1.836 4.148c-.816 1.428-1.156 1.7-1.088 2.924l.102 1.836c-.068.136-.204-.136 0 .204.272-.034.034 0 .136-.136.374-.442.238-.544.442-1.088.136-.34.102-.34.204-.646l.442-1.122c.102-.17.204-.34.34-.476.374-.544 1.292-2.55 2.108-2.856.612-.204.85-.068 1.224.034.408.136.646.136.952.51.136.17.51.782.68 1.054.408.714.578 2.176.476 2.992l-.068 1.36c0 1.836-.17 1.7-.204 2.822-.068 3.706.272 2.992 1.394 3.536.476.204.136.136.714.102.272-.034.374.102.68.068zM81.001 8.144c-.034 1.156-.748 4.59-.51 6.256.34-.306 1.428-3.23 1.666-3.842.136-.272.204-.51.34-.782l1.088-3.298c.272-1.428.714-1.496.51-3.808a3.404 3.404 0 0 0-.272-1.088c-.204-.442-.306-.51-.748-.374-.578.136-.884.544-1.02 1.122-.136.408-.306.442-.476 1.496-.068.646-.136 1.088-.204 1.7l-.374 2.618zm18.802 8.67c.374.748-.476 2.448-.782 3.196-.85 1.802-.306.714-.646 1.734-.238.646-.442 1.156-.646 1.836-.102.306-.612.748-.714 1.054-.136.408-1.7 2.21-2.346 2.448-1.258.442-2.72-.544-3.162-1.258l-.17-.17c-.102-.238-.544-.85-.714-1.36-.136-.408-.272-1.36-.34-1.836-.238-1.496.272-8.738.51-10.302.204-1.19.102-3.094.238-4.284l.034-.034c-.34-.034-.646-.034-.884-.068-.816-.068-1.224-.238-1.938.102-.51.204-.918.272-1.292.408-.238-.034-.51-.068-.612-.17-.068-.102-.238-.272-.238-.374 0-.068.068-.374.102-.51.034-.068.034-.136.068-.238l.102-.068c.17-.068.374-.102.544-.204.068-.034.17-.068.272-.136.034 0 .034 0 .034-.034 1.054-.34 2.584-.17 3.536-.034l.408.102c.034-.374.068-.782.136-1.156.068-.578-.034-.714 0-1.19.034-.374.374-.646.408-1.088.034-.578-.306 0-.068-1.224.748-.374 1.734-.408 2.38.034.408.238.374.136.544.578.102.306.068.17.204.408.034.272-.272 2.788-.34 3.57v.17l-.034.646h.17l.918-.068c.544-.034 1.496-.51 2.312-.952.17-.034.34-.068.544-.136.476-.102.51-.136.68-.17.17-.034.102 0 .204.034.068.034.136.272.136.34 0 .102-.068.442-.102.544 0 .068-.136.238-.306.408-.816.442-1.768.782-2.108.952-.578.34-1.02.272-1.292.34 0 0-1.054-.068-1.19-.068v.068c.034.748-.68 11.152-.68 11.152-.102.374-.204.442-.204.884-.034 1.734-.102 1.904.068 3.706.068.748.136.986.442 1.564.204 0 .714-.408.952-.748l2.414-4.216c.374-1.224 1.19-3.026 1.904-4.114.204-.34.068-.34.34-.544 0 .034.034.034.034.068l.17.408z" fill="#A18F7A" fill-rule="nonzero"/></svg>