<?xml version="1.0" encoding="UTF-8"?>
<svg width="222px" height="35px" viewBox="0 0 222 35" version="1.1" xmlns="http://www.w3.org/2000/svg" xmlns:xlink="http://www.w3.org/1999/xlink">
    <!-- Generator: Sketch 54.1 (76490) - https://sketchapp.com -->
    <title>WantMoreFod52?</title>
    <desc>Created with Sketch.</desc>
    <g id="Symbols" stroke="none" stroke-width="1" fill="none" fill-rule="evenodd" opacity="0.972005208">
        <g id="newsletter-/-1400" transform="translate(-259.000000, -28.000000)" fill="#F1F1F1" fill-rule="nonzero">
            <g id="Group-20">
                <g transform="translate(259.000000, 31.000000)">
                    <path d="M23.328,5.608 C23.22,5.932 23.184,5.752 23.112,6.256 C23.004,7.084 23.04,6.904 23.184,7.66 L22.968,7.336 C23.004,7.768 22.716,8.884 22.716,9.892 C22.608,10.108 22.608,10.288 22.608,10.612 L22.536,11.188 C22.356,11.332 22.464,10.828 22.392,11.476 L22.392,11.944 C22.248,12.448 22.176,12.88 22.032,13.348 C21.492,15.472 21.78,14.5 21.6,16.048 C21.528,16.48 21.312,17.128 21.312,17.524 C21.348,17.524 21.276,17.92 21.456,17.416 C21.492,17.848 20.952,21.124 20.808,21.7 L20.376,23.752 C20.232,24.436 19.98,25.048 19.764,25.696 C19.692,26.02 19.62,26.38 19.44,26.668 C19.26,26.992 19.224,27.172 19.08,27.568 C18.756,28.54 18.612,28.972 17.964,29.728 C17.856,29.836 17.748,29.98 17.676,30.052 L16.92,30.7 C16.344,30.988 15.732,30.808 15.192,30.7 C14.94,30.628 14.976,30.664 14.688,30.556 C14.292,30.412 13.428,29.692 13.176,29.44 C12.708,28.972 12.456,28.252 12.168,27.676 C10.908,25.048 10.44,21.88 10.152,18.856 C9.972,17.056 9.9,15.4 9.756,13.636 C9.612,13.78 9.684,13.636 9.576,13.888 L8.244,18.856 C8.1,19.612 7.128,23.536 6.876,24.076 L6.444,25.264 C6.408,25.372 6.444,25.408 6.408,25.588 C6.3,25.912 5.832,26.668 5.616,27.064 C5.472,27.388 5.472,27.568 4.968,27.676 C4.644,27.748 4.104,27.82 3.96,27.82 C2.16,27.496 0.972,25.84 0.612,24.112 C0.18,22.096 -0.072,17.56 -1.04083409e-17,15.472 C0.036,14.788 0.036,13.96 0.036,13.312 C0.036,12.088 0.18,10.684 0.216,9.424 C0.324,6.436 -0.18,2.908 1.404,2.62 C2.16,2.512 2.736,2.764 3.204,3.016 C4.716,3.916 4.212,8.812 4.14,10.252 C4.14,10.54 4.104,10.54 4.068,10.72 C4.068,11.008 4.176,10.828 4.14,11.188 L4.32,21.952 C4.284,22.708 4.212,23.104 4.32,23.86 L4.464,25.408 C4.428,25.66 4.32,25.336 4.428,25.876 C5.148,25.3 5.796,22.528 6.048,21.448 C6.228,20.62 6.444,19.936 6.66,19.144 C7.236,17.236 7.776,15.148 8.172,13.204 L9.072,9.712 C9.612,7.192 9.324,7.408 10.368,7.228 C11.412,7.012 10.908,7.084 11.7,7.372 C11.952,7.48 12.096,7.552 12.312,7.624 C12.888,7.84 13.464,8.452 13.572,9.064 C13.644,9.316 13.68,9.28 13.752,9.676 L14.616,20.008 C14.796,20.764 14.616,21.016 14.76,21.664 C15.048,23.104 14.976,24.256 15.516,26.236 C15.696,26.92 15.732,28.54 16.2,29.044 C16.596,28.684 17.136,27.064 17.352,26.488 C17.46,26.2 17.496,25.912 17.604,25.588 C18.18,24.292 19.08,21.628 19.296,20.152 C19.404,19.432 19.404,18.928 19.584,18.136 L20.412,14.284 C20.736,12.916 20.772,11.584 20.988,10.18 C21.456,7.192 21.528,7.444 21.42,4.24 C21.384,3.808 21.456,3.52 21.456,3.16 C21.456,2.764 21.348,2.368 21.348,1.972 C21.384,1.612 21.348,1.36 21.348,1.108 C21.528,1.072 21.456,0.712 21.528,0.424 C21.6,0.172 21.564,0.028 21.564,-0.08 C21.564,-0.188 21.672,-0.548 21.744,-0.728 C21.78,-0.872 21.96,-1.124 21.96,-1.124 L22.32,-1.196 C22.32,-1.196 22.68,-1.088 22.788,-1.016 C22.86,-0.944 23.076,-0.656 23.076,-0.548 C23.112,-0.512 23.184,-0.368 23.256,-0.188 C23.328,0.568 23.364,1.396 23.328,1.756 C23.292,2.152 23.508,5.14 23.328,5.608 Z M38.34,17.884 C38.412,18.28 38.412,19.216 38.304,19.576 C38.16,19.936 38.232,20.044 38.124,20.368 C37.908,21.124 37.296,22.96 36.972,23.644 L36.468,24.508 C36.252,25.156 34.956,27.784 34.344,27.964 C33.408,28.18 32.616,27.712 32.076,26.92 C31.896,26.668 31.824,26.632 31.644,26.452 C30.708,25.408 30.384,23.284 30.456,21.736 C30.492,21.196 30.564,20.548 30.564,20.008 C30.276,20.332 30.384,20.368 30.096,20.656 L30.024,20.728 L29.88,20.836 C29.88,20.872 29.88,20.908 29.844,20.908 L28.548,22.708 C28.188,23.176 28.116,23.068 27.936,23.68 C27.828,24.076 27.54,24.364 27.108,24.652 C27.072,24.76 27.072,24.724 27.036,24.796 C26.964,24.94 27.036,24.796 27,24.94 L26.676,24.976 L26.532,25.084 C26.244,25.156 26.064,25.228 25.704,25.048 L25.128,24.58 C25.056,24.472 24.912,24.292 24.84,24.184 C24.696,23.968 25.02,24.112 24.624,24.004 C24.264,23.572 23.904,22.168 23.94,21.34 C24.012,20.26 24.084,19.684 24.336,18.712 L25.128,16.444 C25.488,15.688 26.388,13.888 26.784,13.456 C27.396,12.7 28.548,11.44 29.196,11.044 C29.808,10.612 29.772,10.792 30.384,10.792 C31.212,10.792 32.004,11.332 32.292,12.016 C32.292,12.052 32.436,13.42 32.328,13.636 C32.292,13.96 32.328,14.14 31.968,14.248 C30.96,14.536 31.212,13.6 31.14,12.088 C30.96,12.232 31.068,12.124 30.924,12.304 L30.348,13.132 C30.348,13.168 30.312,13.168 30.312,13.204 L30.204,13.42 C29.736,14.5 28.62,15.544 28.44,15.976 C28.08,16.948 28.116,16.696 27.792,17.416 C27.648,17.632 27.576,17.956 27.468,18.208 C26.82,19.756 26.316,21.448 26.28,23.248 L26.244,24.04 C26.496,24.148 26.388,24.076 26.676,23.932 L26.784,23.896 C26.928,23.392 26.82,23.788 27.108,23.428 L28.62,21.232 C28.764,20.98 28.908,20.584 29.232,20.332 L29.196,20.116 C29.448,19.864 29.7,19.432 29.844,18.856 C29.952,18.244 30.204,18.064 30.42,17.632 C30.564,17.416 30.6,17.2 30.708,16.984 C30.996,16.372 31.5,15.616 31.464,14.968 C32.004,14.86 31.968,14.752 32.256,14.5 L32.58,14.536 C32.652,14.932 32.58,14.968 32.904,15.076 C33.12,15.148 33.372,15.22 33.516,15.292 C34.056,15.544 34.056,15.76 34.308,16.408 C34.2,16.516 34.2,16.336 34.164,16.696 C34.128,16.876 34.128,16.912 34.128,17.092 L33.624,21.268 C33.588,21.628 33.624,21.628 33.588,21.988 C33.516,23.788 33.156,26.956 33.804,26.92 C34.02,26.776 34.848,25.48 34.884,25.372 C35.388,24.112 35.352,24.508 35.856,23.212 L36.36,21.736 C36.54,20.944 37.98,17.344 37.98,17.236 C38.052,17.272 38.232,17.092 38.34,17.884 Z M48.024,21.016 C47.628,28.576 49.716,26.092 50.544,27.676 L50.292,28.216 C49.5,28.216 48.924,28.072 48.168,27.604 L47.412,26.992 C46.692,26.38 46.044,25.516 45.612,24.508 C44.748,22.492 45.036,18.028 45.216,15.976 C45.288,14.824 45.828,11.404 45.612,10.864 C45.396,11.08 45.216,11.368 45.072,11.656 L44.928,11.908 C44.82,12.232 44.496,12.988 44.316,13.384 C43.704,14.788 43.812,15.04 43.308,16.552 C43.092,17.092 42.912,17.56 42.768,18.028 C42.444,19 41.976,20.224 41.76,21.196 C41.148,23.752 41.4,21.988 40.968,23.536 C40.896,23.752 40.932,23.824 40.896,23.896 L40.788,24.076 C40.644,24.292 40.536,23.752 40.752,24.4 C40.644,24.544 40.644,24.436 40.788,24.616 C40.752,25.012 40.68,25.156 40.536,25.516 C40.284,26.2 40.788,26.596 40.104,26.632 C40.032,26.632 39.816,26.596 39.708,26.56 C38.988,26.416 38.232,25.444 37.98,24.868 C37.404,23.536 37.296,19.9 37.476,18.1 C37.548,17.056 37.62,13.564 37.44,12.592 C37.368,12.196 37.224,12.196 37.26,11.584 L37.872,11.476 C38.196,11.44 38.016,11.476 38.052,11.332 C38.484,11.368 38.916,11.548 39.204,11.764 C39.816,12.16 39.492,11.908 39.852,12.34 C39.996,12.484 39.924,12.34 40.032,12.52 C40.572,13.276 40.716,17.38 40.644,18.676 C40.608,19.36 40.428,20.98 40.5,21.52 L40.608,21.232 C40.968,21.304 40.716,21.304 40.788,21.124 L40.608,21.052 L40.68,20.584 L40.932,20.692 L40.932,20.332 C40.968,20.044 41.148,19.828 41.004,19.54 L41.184,19.612 C41.148,19.18 41.22,19.216 41.364,18.712 C41.472,18.424 41.652,17.992 41.58,17.812 L41.688,17.668 C41.508,16.948 42.3,15.832 42.732,14.212 C43.128,12.772 43.524,12.124 44.064,10.864 C44.748,9.208 45.396,9.028 46.872,9.928 C47.016,10.036 47.088,10.108 47.196,10.18 C47.556,10.432 47.52,10.288 47.664,10.756 C47.916,11.404 48.204,11.368 48.312,12.34 C48.384,13.06 48.492,13.744 48.6,14.464 C48.636,14.608 48.492,15.076 48.456,15.472 L48.024,21.016 Z M60.624,16.156 C61.02,16.948 60.12,18.748 59.796,19.54 C58.896,21.448 59.472,20.296 59.112,21.376 C58.86,22.06 58.644,22.6 58.428,23.32 C58.32,23.644 57.78,24.112 57.672,24.436 C57.528,24.868 55.872,26.776 55.188,27.028 C53.856,27.496 52.308,26.452 51.84,25.696 L51.66,25.516 C51.552,25.264 51.084,24.616 50.904,24.076 C50.76,23.644 50.616,22.636 50.544,22.132 C50.292,20.548 50.832,12.88 51.084,11.224 C51.3,9.964 51.192,7.948 51.336,6.688 L51.372,6.652 C51.012,6.616 50.688,6.616 50.436,6.58 C49.572,6.508 49.14,6.328 48.384,6.688 C47.844,6.904 47.412,6.976 47.016,7.12 C46.764,7.084 46.476,7.048 46.368,6.94 C46.296,6.832 46.116,6.652 46.116,6.544 C46.116,6.472 46.188,6.148 46.224,6.004 C46.26,5.932 46.26,5.86 46.296,5.752 L46.404,5.68 C46.584,5.608 46.8,5.572 46.98,5.464 C47.052,5.428 47.16,5.392 47.268,5.32 C47.304,5.32 47.304,5.32 47.304,5.284 C48.42,4.924 50.04,5.104 51.048,5.248 L51.48,5.356 C51.516,4.96 51.552,4.528 51.624,4.132 C51.696,3.52 51.588,3.376 51.624,2.872 C51.66,2.476 52.02,2.188 52.056,1.72 C52.092,1.108 51.732,1.72 51.984,0.424 C52.776,0.028 53.82,-0.008 54.504,0.46 C54.936,0.712 54.9,0.604 55.08,1.072 C55.188,1.396 55.152,1.252 55.296,1.504 C55.332,1.792 55.008,4.456 54.936,5.284 L54.936,5.464 L54.9,6.148 L55.08,6.148 L56.052,6.076 C56.628,6.04 57.636,5.536 58.5,5.068 C58.68,5.032 58.86,4.996 59.076,4.924 C59.58,4.816 59.616,4.78 59.796,4.744 C59.976,4.708 59.904,4.744 60.012,4.78 C60.084,4.816 60.156,5.068 60.156,5.14 C60.156,5.248 60.084,5.608 60.048,5.716 C60.048,5.788 59.904,5.968 59.724,6.148 C58.86,6.616 57.852,6.976 57.492,7.156 C56.88,7.516 56.412,7.444 56.124,7.516 C56.124,7.516 55.008,7.444 54.864,7.444 L54.864,7.516 C54.9,8.308 54.144,19.324 54.144,19.324 C54.036,19.72 53.928,19.792 53.928,20.26 C53.892,22.096 53.82,22.276 54,24.184 C54.072,24.976 54.144,25.228 54.468,25.84 C54.684,25.84 55.224,25.408 55.476,25.048 L58.032,20.584 C58.428,19.288 59.292,17.38 60.048,16.228 C60.264,15.868 60.12,15.868 60.408,15.652 C60.408,15.688 60.444,15.688 60.444,15.724 L60.624,16.156 Z M74.7364424,13.1991334 L74.772,12.808 C74.808,12.844 74.844,12.7 74.916,12.988 C74.988,12.736 74.988,12.808 74.844,12.664 C74.988,12.304 75.096,11.944 75.276,11.548 C75.348,11.332 75.456,11.224 75.528,11.044 C75.78,10.144 75.6,10.324 76.104,9.28 C76.176,9.1 76.284,8.992 76.392,8.776 C76.464,8.596 76.5,8.416 76.608,8.236 C77.004,7.48 77.328,6.976 78.048,6.508 C78.3,6.364 79.632,6.292 80.1,6.616 C80.784,7.084 81.036,7.048 81.576,7.768 C82.44,8.92 82.08,8.236 82.512,9.46 L82.656,11.44 C82.584,11.908 82.296,14.932 82.188,15.4 L81.792,17.272 C81.468,18.172 81.504,18.136 81.36,19.036 C81.468,18.892 81.288,19.144 81.468,18.928 L81.684,18.496 C81.792,18.316 81.864,18.136 81.972,17.956 C82.188,17.56 81.936,17.344 82.152,16.984 C82.764,15.796 84.06,10 84.708,9.136 L85.428,7.444 C86.184,6.724 86.292,5.824 87.372,5.428 C88.02,5.212 88.236,5.248 88.956,5.32 C90,5.464 89.568,5.428 90.324,5.824 C91.404,6.4 91.404,6.904 91.656,7.408 C91.764,7.66 91.908,7.804 92.016,8.02 C92.844,9.712 92.52,10.216 92.592,10.576 C92.772,11.116 92.664,12.376 92.556,12.952 C92.484,13.168 92.52,13.492 92.484,13.744 C92.412,14.176 92.376,14.644 92.268,15.076 C92.088,16.048 91.908,16.912 91.728,17.848 C91.584,18.748 91.44,19.72 91.296,20.62 C91.116,21.52 91.368,21.088 91.044,21.844 C90.972,22.132 90.9,23.14 90.864,23.536 L90.756,24.616 C90.72,24.724 90.504,25.192 90.54,25.552 C90.684,26.74 90.252,27.784 90.864,29.152 C91.008,29.44 90.972,29.548 91.08,29.728 C91.548,30.592 92.016,30.808 92.34,31.24 L92.088,31.6 C91.368,31.636 91.404,31.6 90.864,31.312 C89.892,30.844 89.1,30.016 88.596,29.116 C87.48,27.064 87.84,25.732 87.444,24.328 C87.588,24.328 87.516,23.5 87.552,23.176 C87.624,21.556 87.552,21.448 87.768,19.648 C88.272,15.94 89.424,12.088 89.424,8.632 C89.424,7.552 89.388,7.372 88.956,6.4 C88.596,6.4 88.344,6.364 88.128,6.472 L86.76,8.272 L86.22,9.64 C86.076,9.892 86.04,9.964 85.86,10.18 C85.608,10.468 85.572,10.432 85.5,10.792 C85.284,10.936 85.32,11.188 85.14,11.548 C84.996,11.836 84.924,11.98 84.744,12.304 C83.7,14.356 83.376,18.352 82.332,20.44 C82.224,20.656 82.08,20.872 81.936,21.124 C81.288,22.42 81.396,22.96 80.172,22.708 C79.776,22.636 79.272,22.852 78.948,22.528 L78.408,21.772 C78.228,21.412 78.228,21.088 78.192,20.656 C78.084,18.964 78.372,16.876 78.66,15.22 L79.236,10.792 C79.308,9.928 79.416,8.92 79.272,8.02 C79.236,7.948 79.236,7.804 79.2,7.768 C79.092,7.336 79.2,7.624 79.02,7.516 C78.444,8.02 78.552,7.84 78.192,8.56 C77.796,9.424 77.4,9.784 77.184,10.792 C77.076,10.936 76.932,11.584 76.716,11.908 L76.572,12.088 C76.284,13.168 76.32,12.376 76.068,13.708 C76.032,14.032 76.032,13.888 75.924,13.996 L75.276,16.156 C75.204,16.264 75.132,16.372 75.096,16.552 C75.024,16.876 75.06,17.164 75.024,17.416 C74.88,18.388 74.448,19.54 74.34,20.08 C74.232,20.872 74.376,21.34 74.088,22.42 C74.016,22.564 74.016,22.708 74.016,22.888 C73.908,23.788 73.404,25.444 73.08,26.416 C73.008,26.704 72.576,27.856 72.612,28.144 C72.18,28.216 72.324,28.324 71.748,28.18 C70.884,27.964 70.488,27.64 70.128,26.668 C69.768,25.552 69.876,24.58 69.876,23.32 C69.912,21.808 70.128,20.296 70.128,18.784 C70.128,18.028 70.164,17.236 70.164,16.48 C70.128,14.5 70.236,12.592 69.984,10.504 C69.948,10.108 69.804,9.64 69.804,9.28 C69.732,8.236 69.336,5.788 68.58,5.068 C67.824,5.068 67.86,5.14 67.464,5.5 C67.32,5.68 67.212,5.752 67.068,5.932 C67.032,6.04 66.96,6.112 66.96,6.148 L66.564,6.58 C66.276,6.976 66.384,6.688 66.096,7.264 C65.736,8.128 65.844,8.092 65.7,8.452 L65.484,8.416 C65.412,8.812 65.376,8.74 64.836,8.74 C64.548,8.38 64.296,8.128 64.368,7.444 C64.404,7.228 64.692,6.436 64.836,6.184 C65.952,4.276 66.492,3.736 68.832,3.844 C69.084,3.844 69.048,3.988 69.444,4.096 C70.344,4.312 71.136,5.248 71.604,5.932 L72.396,7.156 L72.9,8.668 C72.972,8.956 73.044,9.172 73.152,9.46 C73.224,9.64 73.08,9.712 73.152,10.072 L73.44,11.224 L73.8,17.2 C73.8,17.596 73.764,17.668 73.728,17.992 C73.908,17.74 73.836,17.452 73.872,17.164 C73.944,16.912 73.908,16.624 74.016,16.408 L74.052,16.264 L74.088,15.904 L74.34,15.4 C74.412,15.04 74.304,15.184 74.268,15.148 L74.268,15.004 C74.664,14.896 74.448,15.04 74.592,14.788 L74.52,14.716 L74.376,14.716 L74.412,14.536 L74.628,14.572 C74.628,14.356 74.7,14.392 74.736,14.32 L74.7,13.96 L74.664,13.492 C75.024,13.42 74.952,13.456 74.952,13.06 L74.772,13.168 C74.7443077,13.168 74.7379172,13.1893018 74.7364424,13.1991334 L74.7364424,13.1991334 Z M102.996,14.86 C103.104,15.868 103.284,14.716 103.284,17.488 C103.284,17.488 103.176,18.064 103.104,18.208 C103.068,18.388 102.996,19 102.996,19 L102.924,19 C102.888,19.036 102.888,19.072 102.888,19.072 C102.888,19.108 102.888,19.108 102.852,19.108 L102.852,19.18 C102.744,19.36 102.78,19.144 102.744,19.432 C102.708,19.648 102.672,19.864 102.636,20.044 C102.492,20.728 102.492,20.692 102.24,21.232 C102.024,21.772 102.384,21.268 102.132,21.7 L101.34,23.14 L101.124,23.32 C101.016,23.788 100.08,24.328 99.9,24.472 C99.216,25.012 98.892,24.868 98.136,25.012 C97.128,25.228 95.832,24.22 95.256,23.356 C93.672,20.98 93.78,18.532 94.896,15.868 C95.148,15.256 95.724,14.392 96.048,13.888 C96.912,12.592 96.66,12.736 97.776,12.556 C97.848,12.232 98.28,11.368 98.604,11.152 C99,10.9 100.116,11.044 100.476,11.152 C101.088,11.224 101.736,11.908 102.06,12.268 C102.348,12.592 102.348,12.664 102.6,13.06 C102.888,13.528 102.78,13.528 102.816,14.176 L102.96,14.032 C102.996,14.428 102.924,14.5 102.996,14.86 Z M102.168,15.94 C102.168,14.752 101.988,15.616 101.808,14.104 C101.736,13.348 101.7,13.384 101.34,12.844 C101.16,12.556 100.908,12.232 100.548,12.16 L100.512,12.196 L100.404,12.376 C100.152,12.808 100.296,12.556 100.188,12.88 C100.116,13.096 100.188,12.916 100.08,13.06 C100.08,13.528 99.972,13.312 99.864,13.744 C99.792,13.96 99.828,14.248 99.828,14.572 C99.828,16.192 99.756,16.66 100.548,17.452 C100.548,17.524 100.584,17.596 100.584,17.668 C100.656,17.884 100.656,17.848 100.656,17.956 C100.656,18.064 100.584,18.136 100.512,18.208 C100.476,18.28 100.296,18.316 100.08,18.244 C99.972,18.208 99.9,18.244 99.828,18.316 C99.252,17.92 98.676,17.344 98.28,16.912 C97.128,18.28 96.228,21.808 97.452,23.752 C98.1,23.608 99,23.284 99.432,22.78 C99.612,22.6 99.864,22.42 99.936,22.24 C100.116,22.132 100.08,22.384 100.08,21.988 C100.296,21.556 100.584,21.16 100.836,20.692 C101.052,20.368 101.196,19.972 101.304,19.576 C101.304,19.576 101.52,19.072 101.52,19 C101.52,18.928 101.628,18.388 101.628,18.352 C101.628,18.316 101.88,17.956 101.88,17.956 C102.132,17.524 102.168,16.516 102.168,15.94 Z M115.92,16.516 C116.568,17.056 116.316,17.488 116.064,18.712 L115.632,20.368 C115.56,20.512 114.66,22.42 114.552,23.14 C114.336,24.4 113.796,24.688 113.544,25.084 C112.824,26.272 111.492,26.884 110.232,26.452 C109.98,26.344 109.188,25.732 109.044,25.588 C108,24.436 108.144,21.556 108.432,20.26 C108.72,18.964 108.54,18.64 109.008,16.84 C109.404,15.436 109.44,14.788 109.368,13.312 C109.188,13.204 108.936,12.916 108.756,12.808 C108.324,13.816 107.244,16.228 106.488,17.02 C106.308,17.2 106.272,17.596 106.164,17.704 C105.912,17.992 105.984,19.54 105.408,19.684 C104.976,19.756 104.724,19.54 104.364,19.324 C104.436,18.928 104.76,17.812 105.048,17.524 C105.408,17.128 106.704,14.14 107.028,13.456 C107.244,12.916 107.604,12.304 107.676,11.836 C106.596,10.648 105.624,9.676 106.056,8.164 C106.344,7.264 106.416,6.868 107.316,6.688 C107.784,6.58 109.404,6.184 109.656,6.832 C109.8,7.228 109.98,8.596 109.944,8.992 C109.764,10.972 108.864,11.044 109.98,11.728 L111.564,12.808 C112.5,13.708 112.284,13.708 112.644,14.824 C112.86,15.508 112.68,17.128 112.5,17.884 C111.816,20.548 112.176,19.324 111.816,21.556 C111.744,21.916 111.636,22.024 111.6,22.384 C111.564,22.6 111.564,23.284 111.492,23.356 C111.42,23.572 111.312,25.012 111.348,25.228 C111.816,25.012 112.644,23.788 113.04,23.428 C113.076,22.852 113.832,21.952 113.832,21.196 L113.76,21.088 C114.012,20.728 113.76,20.728 114.12,20.476 L114.156,20.44 L114.264,20.044 L114.264,20.116 L114.156,20.44 L114.3,20.296 C114.264,20.224 114.264,20.152 114.264,20.116 L114.336,19.864 L114.336,19.828 C114.372,19.828 114.372,19.756 114.372,19.684 L114.66,18.748 L114.732,18.604 C114.732,18.532 114.696,18.496 114.732,18.352 L114.768,17.848 L114.984,17.848 L114.984,17.632 C114.948,17.524 115.02,17.308 115.02,17.02 L115.236,17.02 L115.236,16.984 C115.236,16.948 115.2,16.948 115.092,16.984 C115.128,16.84 115.164,16.66 115.2,16.552 C115.38,16.048 115.344,16.336 115.38,16.372 C115.416,16.192 115.416,16.372 115.524,16.264 C115.776,16.336 115.74,16.372 115.92,16.516 Z M108.288,9.964 C108.612,8.38 108.648,9.352 108.36,7.444 C107.928,7.48 108,7.552 107.82,7.912 C107.856,8.236 107.928,8.668 107.964,9.028 C108.036,9.568 107.892,9.64 108.288,9.964 Z M114.444,19.396 C114.444,19.432 114.408,19.504 114.408,19.54 L114.48,19.288 L114.444,19.396 Z M114.48,19.18 L114.516,19.216 L114.66,18.748 C114.48,18.928 114.516,18.892 114.48,19.18 Z M114.290666,19.9373375 L114.264,20.044 C114.264,19.996 114.28,19.964 114.290667,19.9373333 L114.290666,19.9373375 Z M125.532,16.444 C125.604,16.66 125.532,16.696 125.712,16.876 C125.604,17.38 125.604,17.812 125.532,18.1 C125.46,18.604 125.028,19.18 124.812,19.54 L124.092,20.908 L123.876,20.908 L123.912,21.304 C123.624,22.096 123.552,22.348 123.192,22.924 C123.012,23.176 123.12,23.176 123.012,23.392 C122.796,23.824 121.392,25.084 120.996,25.336 C119.808,26.128 120.06,25.696 119.34,25.948 C118.98,26.092 118.944,26.236 118.404,26.236 C117.756,26.2 116.316,25.516 116.1,25.228 C115.344,24.148 115.596,24.724 114.948,23.536 L114.732,23.212 C114.012,21.484 114.156,19.936 114.552,18.136 C114.696,17.488 114.948,16.948 115.2,16.444 C115.452,15.796 115.74,15.472 116.064,14.968 C116.46,14.284 117.828,12.988 118.44,12.736 C118.872,12.556 119.772,12.772 120.096,12.916 C120.888,13.24 120.816,14.608 120.816,14.608 C120.816,14.68 121.14,14.86 121.32,15.616 C121.644,17.236 120.996,18.316 120.528,19.288 L119.808,20.152 C117.828,21.7 117.18,20.836 116.46,20.872 C116.1,22.204 116.352,24.796 117.72,24.832 C117.864,24.832 118.8,24.652 118.908,24.616 C119.304,24.472 119.448,24.436 119.808,24.22 L121.248,23.032 C121.356,22.924 121.464,22.78 121.572,22.672 L123.48,19.864 C123.732,19.504 123.804,19.396 124.056,19 L125.532,16.444 Z M117.36,18.172 C117.144,18.604 116.928,18.964 116.82,19.468 C117.396,19.468 117.756,19.36 118.152,19.108 C119.376,18.388 119.844,16.732 119.844,15.328 C119.556,15.472 119.088,15.832 118.872,16.084 L117.684,17.596 C117.54,17.884 117.504,17.884 117.36,18.172 Z M147.96,3.124 C148.752,3.628 149.184,4.744 148.752,5.5 L148.5,5.536 C148.068,4.96 148.356,6.148 147.888,4.456 C147.492,4.348 147.312,4.132 146.808,4.06 C143.712,3.448 143.496,3.88 140.76,4.276 C140.292,4.348 139.356,4.78 138.636,5.032 C138.744,5.32 138.96,5.536 138.888,5.896 C138.78,6.292 138.744,6.508 138.744,6.976 C138.708,7.84 138.816,8.2 138.744,9.064 C138.672,9.928 138.024,14.284 138.204,14.932 C138.096,15.076 138.06,14.644 138.096,15.688 C138.78,15.652 139.248,15.544 139.896,15.544 C142.056,15.544 141.696,16.012 141.696,16.66 C141.444,16.912 141.084,17.236 140.76,17.344 L139.86,17.668 C139.464,17.776 139.68,17.74 139.572,17.848 C139.176,17.776 138.096,18.1 137.736,18.28 C137.556,21.592 137.016,28.612 134.928,31.132 C134.82,31.276 134.892,31.204 134.748,31.348 L134.604,31.492 L134.496,31.492 L134.316,31.528 C133.812,31.708 134.136,31.852 133.344,31.924 C133.488,30.88 133.848,29.8 133.992,28.756 L134.46,25.3 L134.568,25.228 C134.46,25.048 134.604,25.156 134.424,25.084 L134.532,24.976 C134.46,24.58 134.604,24.112 134.568,23.572 L134.568,22.852 C134.424,22.024 134.604,20.656 134.46,19.468 C133.416,19.504 132.156,20.98 131.4,19.972 C130.716,19.036 130.536,19.144 131.688,18.388 L134.496,16.912 C134.676,15.508 134.748,11.872 134.856,10.684 L135.216,7.12 C135.216,6.868 135.288,6.832 135.324,6.616 C135.036,6.58 134.676,6.904 134.352,7.012 C133.848,7.228 131.94,8.74 131.508,8.704 L130.968,8.488 C130.86,8.308 131.076,8.56 130.86,8.308 C130.716,8.2 130.824,8.308 130.68,8.236 C130.572,8.128 130.536,8.092 130.464,8.056 C130.32,7.3 130.14,7.408 130.356,6.652 C130.428,6.58 130.428,6.652 130.5,6.436 C131.22,5.968 131.832,5.464 132.552,5.032 C132.732,4.924 132.696,4.96 132.876,4.852 L134.748,3.844 C135.576,3.484 136.404,3.196 137.196,2.836 C137.628,2.62 138.06,2.548 138.492,2.368 C138.924,2.224 139.32,2.116 139.788,2.008 C142.092,1.468 143.352,1.252 145.728,1.9 C146.196,2.044 146.592,2.188 146.988,2.368 C147.456,2.584 147.6,2.872 147.96,3.124 Z M163.728,14.86 C163.836,15.904 164.052,14.752 164.052,17.488 C164.052,17.488 163.908,18.064 163.872,18.244 C163.8,18.388 163.728,19.036 163.728,19.036 L163.656,19.036 C163.656,19.072 163.62,19.108 163.62,19.108 L163.62,19.144 C163.584,19.144 163.584,19.18 163.584,19.18 C163.476,19.396 163.548,19.18 163.476,19.468 C163.44,19.684 163.404,19.864 163.368,20.08 C163.224,20.764 163.224,20.728 162.972,21.268 C162.756,21.808 163.116,21.268 162.864,21.736 L162.072,23.14 L161.856,23.356 C161.748,23.824 160.848,24.328 160.632,24.508 C159.948,25.048 159.624,24.904 158.868,25.048 C157.86,25.264 156.564,24.22 155.988,23.392 C155.088,21.988 154.728,20.548 154.836,19.072 C154.476,19.288 154.116,19.432 153.756,19.54 C153.756,19.612 153.756,19.648 153.72,19.648 C153.684,19.828 153.612,20.44 153.612,20.44 L153.54,20.476 C153.504,20.512 153.504,20.512 153.504,20.548 C153.504,20.548 153.504,20.584 153.468,20.584 L153.468,20.62 C153.36,20.836 153.396,20.62 153.36,20.908 C153.324,21.088 153.288,21.304 153.252,21.52 C153.108,22.204 153.108,22.132 152.856,22.672 C152.64,23.248 153,22.708 152.748,23.176 L151.956,24.58 L151.74,24.76 C151.632,25.264 150.696,25.768 150.516,25.912 C149.832,26.452 149.508,26.308 148.752,26.488 C147.744,26.668 146.448,25.66 145.872,24.832 C144.288,22.42 144.396,19.972 145.512,17.344 C145.764,16.732 146.34,15.832 146.664,15.328 C147.528,14.032 147.276,14.176 148.392,13.996 C148.464,13.672 148.896,12.808 149.22,12.628 C149.616,12.376 150.732,12.484 151.092,12.628 C151.704,12.7 152.352,13.384 152.676,13.744 C152.964,14.032 152.964,14.104 153.216,14.5 C153.504,15.004 153.396,14.968 153.432,15.652 L153.576,15.508 C153.612,15.904 153.54,15.94 153.612,16.3 C153.72,17.272 153.864,16.336 153.9,18.352 C154.224,18.208 154.512,18.028 154.836,17.74 C154.908,17.668 155.016,17.524 155.124,17.416 L155.124,17.38 C155.232,16.912 155.412,16.408 155.628,15.904 C155.88,15.292 156.456,14.428 156.78,13.924 C157.644,12.592 157.392,12.736 158.508,12.556 C158.58,12.268 159.012,11.404 159.336,11.188 C159.732,10.936 160.848,11.08 161.208,11.188 C161.82,11.26 162.468,11.944 162.792,12.304 C163.08,12.628 163.116,12.664 163.332,13.096 C163.62,13.564 163.512,13.528 163.584,14.212 L163.728,14.068 C163.728,14.464 163.692,14.536 163.728,14.86 Z M152.136,20.44 C152.136,20.368 152.208,20.044 152.244,19.9 C151.56,20.008 151.2,19.936 150.84,19.756 C150.804,19.756 150.768,19.72 150.696,19.72 C150.588,19.684 150.516,19.72 150.444,19.756 C149.868,19.396 149.292,18.82 148.896,18.352 C147.744,19.72 146.844,23.248 148.068,25.192 C148.716,25.048 149.616,24.76 150.048,24.22 C150.228,24.04 150.48,23.86 150.552,23.716 C150.732,23.608 150.696,23.86 150.696,23.464 C150.912,22.996 151.2,22.636 151.452,22.168 C151.668,21.808 151.812,21.448 151.92,21.016 C151.92,21.016 152.136,20.512 152.136,20.44 Z M152.784,17.416 C152.784,16.192 152.604,17.056 152.424,15.544 C152.352,14.824 152.316,14.86 151.956,14.32 C151.776,14.032 151.524,13.672 151.164,13.6 C151.164,13.636 151.128,13.636 151.128,13.672 L151.02,13.852 C150.768,14.248 150.912,14.032 150.804,14.356 C150.732,14.572 150.804,14.392 150.696,14.5 C150.696,14.968 150.588,14.788 150.48,15.184 C150.408,15.4 150.444,15.724 150.444,16.012 C150.444,17.056 150.408,17.632 150.588,18.136 L150.66,18.208 C150.768,18.28 150.84,18.352 150.912,18.424 C151.308,18.784 151.488,18.964 152.208,18.82 L152.244,18.82 C152.424,18.784 152.568,18.748 152.712,18.748 C152.748,18.28 152.784,17.776 152.784,17.416 Z M162.9,15.976 C162.9,14.752 162.756,15.616 162.576,14.14 C162.504,13.384 162.432,13.42 162.072,12.88 C161.892,12.592 161.64,12.232 161.28,12.16 C161.28,12.196 161.244,12.232 161.244,12.232 L161.136,12.412 C160.884,12.808 161.028,12.592 160.92,12.916 C160.848,13.132 160.92,12.952 160.812,13.096 C160.812,13.528 160.74,13.348 160.596,13.744 C160.56,13.96 160.56,14.284 160.56,14.572 C160.56,16.192 160.488,16.696 161.28,17.452 C161.316,17.524 161.316,17.596 161.352,17.668 C161.388,17.884 161.388,17.848 161.388,17.992 C161.388,18.1 161.316,18.136 161.244,18.244 C161.208,18.316 161.028,18.352 160.812,18.28 C160.74,18.244 160.632,18.28 160.56,18.352 C159.984,17.956 159.408,17.38 159.048,16.948 C157.86,18.28 156.96,21.844 158.184,23.788 C158.832,23.644 159.732,23.32 160.164,22.78 C160.344,22.6 160.596,22.42 160.668,22.276 C160.848,22.168 160.812,22.42 160.812,22.024 C161.028,21.556 161.352,21.196 161.604,20.728 C161.784,20.368 161.964,20.008 162.072,19.576 C162.072,19.576 162.252,19.072 162.252,19 C162.252,18.928 162.36,18.424 162.36,18.388 C162.36,18.352 162.612,17.992 162.612,17.992 C162.864,17.56 162.9,16.552 162.9,15.976 Z M180.252,16.768 L181.152,16.84 L181.116,17.524 L180.684,18.532 L179.28,21.304 L178.524,23.104 C178.416,23.356 178.272,23.572 178.128,23.788 C177.948,24.04 177.948,24.148 177.768,24.4 C177.336,25.048 177.012,25.228 176.868,25.588 C176.724,25.948 176.652,25.948 176.328,26.164 C175.356,26.848 173.628,26.38 172.908,25.408 L172.728,25.192 C172.404,24.868 172.044,24.292 171.9,23.896 C171.612,23.104 171.432,21.844 171.324,20.98 C170.964,21.268 170.712,21.736 170.424,22.132 C170.136,22.528 169.812,22.924 169.56,23.284 C169.344,23.572 169.38,23.644 169.164,23.968 C168.948,24.256 168.948,24.256 168.696,24.472 C167.688,25.372 167.508,26.236 166.536,25.912 C165.456,25.552 164.844,25.048 164.628,23.716 C164.484,22.708 164.52,22.888 164.556,21.88 C164.592,20.44 164.7,19.828 165.168,18.64 C165.672,17.416 166.68,15.868 167.544,15.04 C168.228,14.356 168.984,13.708 169.956,13.6 C170.1,13.564 170.568,13.528 170.64,13.528 C170.928,13.6 170.964,13.708 171.36,13.636 C171.468,12.556 171.504,11.332 171.72,10.324 C172.224,7.588 172.26,7.192 173.16,4.456 C174.024,1.72 174.42,1.432 175.392,-0.728 C175.608,-1.196 176.58,-2.6 177.048,-2.816 C177.804,-3.104 178.956,-2.888 179.676,-2.096 C180.036,-1.664 180.108,-1.34 180,-0.62 C179.928,-0.044 180.036,-0.152 180.108,0.172 C180.18,0.424 180.108,0.532 179.964,0.748 L180.144,1.036 C180.036,1.432 179.892,1.756 179.784,2.152 L179.208,4.312 C179.1,4.744 179.028,5.032 178.956,5.464 C178.56,7.408 177.984,7.732 177.696,8.38 L177.3,9.388 L177.12,9.496 L177.228,9.604 L175.536,12.988 C175.32,13.672 174.276,15.076 173.772,16.192 C173.484,16.876 173.664,22.024 173.88,23.356 C173.916,23.608 173.988,24.148 174.096,24.508 L174.42,25.228 C175.104,26.02 176.868,23.356 177.156,22.816 L178.416,20.296 L179.964,17.38 C180.108,17.092 180,16.948 180.252,16.768 Z M174.636,8.812 C174.312,10.108 174.204,11.44 173.988,12.988 C174.312,12.736 175.248,10.9 175.464,10.504 C175.86,9.64 175.86,9.352 176.112,8.668 C176.22,8.38 176.364,8.056 176.508,7.804 C178.128,4.564 177.66,4.42 178.416,2.188 L179.064,0.28 C179.1,-0.224 178.92,-0.44 179.028,-1.016 C179.1,-1.52 179.136,-1.592 178.812,-1.916 L178.38,-1.772 C178.344,-1.052 178.236,-0.44 177.876,0.064 C177.804,0.208 177.696,0.316 177.624,0.424 C177.552,0.676 177.624,0.64 177.516,0.928 C177.336,1.252 177.264,1.432 177.12,1.756 L176.796,2.404 C176.364,3.088 175.356,6.076 175.14,7.012 C174.996,7.696 174.78,8.092 174.636,8.812 Z M171.072,18.46 C171.108,18.316 171.18,15.688 171.18,15.364 C170.748,15.436 170.352,15.688 170.064,15.976 C169.848,16.228 170.028,16.156 169.38,16.876 C169.164,17.092 169.236,17.128 169.056,17.416 C168.12,18.712 167.616,19.396 167.076,21.052 C166.932,21.448 166.86,21.916 166.824,22.384 C166.788,23.284 166.5,22.672 166.68,24.4 C167.364,24.04 167.94,23.248 168.408,22.6 C168.804,22.096 170.82,19.144 171.072,18.46 Z M190.44,16.372 C191.484,17.488 192.168,20.404 191.88,21.772 C191.808,21.988 191.772,22.06 191.7,22.276 C191.556,22.816 191.124,23.572 190.8,24.04 C190.476,24.508 190.728,24.22 190.224,24.868 C190.152,24.976 190.008,25.12 189.936,25.264 C189.792,25.372 189.828,25.264 189.792,25.48 L187.74,27.208 C186.84,27.82 185.904,28.18 184.824,28 C184.572,27.928 184.5,27.892 184.176,27.82 C183.384,27.676 183.168,27.676 182.34,27.172 C181.548,26.704 181.08,26.272 180.54,25.588 C180.432,25.48 180.396,25.336 180.396,25.3 C180.216,24.832 180.144,24.4 180.072,23.968 C180,23.572 180.144,23.176 180.144,22.78 L180.252,22.384 L180.288,22.168 C180.324,22.096 180.324,22.096 180.324,22.06 C180.324,22.096 180.324,22.096 180.36,21.988 C180.468,21.664 180.684,21.34 180.972,20.908 L181.188,20.656 C182.124,19.36 182.376,19.756 183.348,19.936 C183.636,20.8 183.528,20.404 182.7,21.844 C181.8,23.356 182.232,23.608 182.196,24.04 C182.124,24.868 182.376,25.552 182.916,26.272 C183.06,26.416 183.024,26.416 183.168,26.524 C183.276,26.596 183.168,26.524 183.312,26.596 C184.464,27.352 185.436,26.524 186.3,25.696 C187.596,24.436 188.676,22.24 188.892,20.548 C189.072,19.18 188.1,16.408 187.272,15.832 C186.408,15.22 185.4,15.688 184.428,15.724 C183.744,15.724 183.852,15.472 182.556,16.516 C181.944,16.984 182.376,16.948 181.08,17.38 C180.288,17.632 180,17.452 179.712,16.84 C180.036,16.444 179.784,16.444 179.856,15.58 C179.928,14.608 180.108,14.068 180.252,13.204 L180.504,12.016 C180.828,10.72 181.116,9.316 181.512,7.984 C181.548,7.876 181.548,7.84 181.548,7.768 C181.548,7.696 181.548,7.624 181.584,7.516 C181.548,7.3 181.584,7.264 181.584,7.084 C182.232,6.4 184.068,6.868 184.176,6.904 C184.824,6.94 186.732,6.292 187.164,5.824 C187.56,5.392 187.92,4.924 187.524,4.312 C188.028,3.7 190.08,3.7 189.72,5.536 C189.684,5.788 189.54,6.292 189.396,6.472 L189.252,6.688 C189,6.904 189,7.048 188.316,7.552 C187.884,7.912 185.868,8.38 185.256,8.452 C184.392,8.56 184.428,8.704 184.356,9.352 C184.32,9.604 184.32,9.748 184.248,10 L184.032,10.864 C183.888,11.548 183.564,12.664 183.564,13.06 C183.564,13.492 183.384,13.852 183.348,14.32 C184.536,14.068 185.76,14.284 186.912,14.356 C187.776,14.392 188.64,15.076 189.252,15.4 C189.432,15.508 189.54,15.508 189.72,15.616 C189.792,15.688 189.828,15.724 189.9,15.76 C190.332,16.048 190.08,15.94 190.44,16.372 Z M207.72,22.312 C207.936,22.924 208.08,23.788 207.792,24.58 C207.648,24.976 207.612,25.3 207.432,25.516 C207.216,25.876 207.18,25.984 206.856,26.272 C206.352,26.74 206.604,26.668 206.244,26.92 C204.624,28.036 203.292,27.532 200.988,27.352 C200.664,27.316 200.304,27.172 199.872,27.172 C199.512,27.136 199.008,27.136 198.648,27.1 C197.064,26.884 197.208,25.948 195.948,26.848 L194.436,27.64 C193.932,27.856 194.112,27.64 193.608,27.712 L193.284,27.676 C193.14,27.568 192.744,27.676 192.456,26.596 C192.312,25.984 192.528,25.12 192.672,24.796 C192.816,24.544 193.716,24.22 194.004,24.112 C194.724,23.788 195.156,24.22 195.588,24.004 C196.236,23.644 196.416,23.356 196.884,22.996 C196.956,22.96 197.028,22.924 197.064,22.888 C197.352,22.672 197.532,22.384 197.784,22.096 L199.692,19.72 C200.052,19.324 200.448,18.676 200.772,18.172 C201.348,17.236 201.672,16.696 202.14,15.688 C202.248,15.472 202.464,15.004 202.536,14.716 L203.04,13.42 C203.184,12.952 202.968,13.492 203.184,13.168 C203.4,13.168 203.292,13.204 203.256,13.024 L203.256,12.952 C203.256,12.916 203.22,12.88 203.22,12.88 C203.292,12.484 203.364,11.728 203.616,11.548 C203.436,11.404 203.508,11.116 203.58,10.54 L203.688,9.892 C203.724,9.532 203.76,8.74 203.76,8.344 C203.724,7.084 203.724,6.976 203.112,6.688 C202.644,6.436 202.896,5.752 200.88,6.832 C200.34,7.084 199.908,7.408 199.512,7.948 C199.872,8.56 199.764,7.768 200.16,8.956 C200.268,9.244 200.268,9.064 200.268,9.46 C200.196,11.26 200.196,11.62 199.116,12.196 C198.9,12.304 198.54,12.484 198.324,12.34 C197.604,11.872 197.46,11.188 197.208,11.008 C197.244,10.144 196.812,10 197.136,8.92 C197.676,7.084 197.784,6.544 199.188,5.428 C199.656,5.032 200.196,4.564 200.952,4.528 C202.248,4.456 202.824,4.708 203.868,5.464 C204.516,5.896 205.452,6.796 205.776,7.624 L205.956,8.092 C206.28,8.812 206.28,10.288 206.28,11.08 C206.28,11.512 206.136,11.908 206.1,12.34 C205.992,13.06 206.028,13.996 205.884,14.572 L205.092,16.66 C204.516,18.208 204.48,17.776 204.084,18.496 L203.58,19.36 C203.22,19.9 201.6,22.132 201.204,22.528 L199.512,24.328 C199.404,24.436 199.332,24.544 199.26,24.688 C199.728,24.796 200.124,24.868 200.628,24.94 C201.096,24.976 201.564,25.156 201.996,25.228 C202.644,25.336 203.904,25.516 204.516,25.3 C205.092,25.12 205.02,25.228 205.488,24.796 C206.856,23.5 206.46,21.34 206.676,20.872 C206.892,21.088 207,21.268 207.216,21.52 L207.72,22.312 Z M221.004,5.932 C221.4,6.868 222.048,8.884 221.76,9.82 C221.796,10.252 221.472,10.72 221.436,11.152 C221.364,12.412 219.888,14.356 218.916,15.292 C217.8,16.408 217.224,16.768 216.648,18.244 C216.54,18.388 216.432,18.604 216.36,18.784 L215.532,20.692 L215.46,22.024 C215.352,24.112 215.928,23.284 215.1,24.292 L214.812,24.256 C214.632,24.184 214.704,24.256 214.524,24.148 C214.128,24.076 213.84,24.148 213.516,23.86 C212.688,22.996 213.012,18.424 213.732,17.092 C213.876,16.84 214.164,16.408 214.164,16.084 C214.632,15.796 215.352,14.356 216,13.564 C217.332,11.764 218.304,9.856 218.52,7.624 C218.556,7.228 218.412,6.292 218.34,5.896 C218.232,5.428 217.836,4.636 217.836,4.348 C217.548,4.168 217.44,4.024 217.296,3.736 C215.964,3.7 214.524,4.42 214.092,5.392 C213.876,5.572 213.876,5.788 213.696,6.04 C213.552,6.328 213.372,6.508 213.228,6.796 C212.724,7.732 213.336,9.136 211.932,8.56 C211.536,8.416 211.608,8.308 211.356,8.092 C211.536,7.588 211.464,7.3 211.644,6.868 C211.932,6.112 212.868,4.636 213.444,4.132 C213.732,3.844 214.02,3.7 214.38,3.52 C215.352,2.98 216.432,2.656 217.62,3.016 L218.16,3.232 C218.196,3.232 218.232,3.268 218.232,3.268 C219.096,3.34 220.572,4.924 221.004,5.932 Z M213.624,25.948 C214.38,25.84 215.352,26.092 215.856,26.056 C216.144,26.416 216.324,26.38 216.288,26.992 C216.252,27.964 215.928,28.324 215.388,29.008 C215.172,29.296 214.632,29.404 214.164,29.404 C213.66,29.44 212.94,28.972 212.76,28.72 C212.544,28.396 212.472,27.424 212.508,26.956 C212.58,26.344 213.048,26.056 213.624,25.948 Z" id="WantMoreFod52?"></path>
                </g>
            </g>
        </g>
    </g>
</svg>