<svg width="411" height="63" fill="none" xmlns="http://www.w3.org/2000/svg"><path d="M12.957 38.6c.38 0 .77-.1 1.11-.29.83-.46 5.48-4.45 5.42-6.14-.01-.26-.14-.44-.4-.56-.11-.05-.26-.08-.45-.08-.47 0-1.07.16-1.59.3-.27.07-.53.14-.73.17-.34.06-.68.12-1.01.22-1.28.36-4.23 1.55-4.06 4.62.02.43.1.74.25.98.23.38.58.63 1.01.74.14.02.29.04.45.04zm4.55-5.31l.05.11-.08.1c-.25.33-.49.63-.73.92-.02.03-2.42 2.67-3.69 2.67a.7.7 0 01-.61-.32c-.16-.26-.12-.6.11-1.01.55-.94 1.31-1.37 2.11-1.82l.25-.15c.34-.2.69-.4 1.07-.52.15-.05 1.07-.1 1.26-.1h.15l.11.12zm-12.65-3.23c.25 0 .5 0 .74-.01 1.19-.03 2.39-.24 3.51-.46 1.43-.28 2.84-.65 4.04-.97.77-.21 1.67-.47 2.49-.87.26-.12.76-.7.75-.86-.06-.12-.67-.51-.88-.63-.09-.06-.17-.1-.21-.13a9.299 9.299 0 00-2.83-1.31c-1.01-.28-2.1-.41-3.35-.41-.86 0-1.77.06-2.89.19-1.69.2-3.44.41-5.04 1.13-.63.28-1.26 1.76-1.18 2.78.06.74.56 1.26 1.32 1.35 1.21.12 2.4.2 3.53.2zm4.35-3.76c.55 0 1.05.03 1.53.09.61.08 1.17.2 1.7.39l.5.17-.49.2c-1.27.53-2.46.64-3.72.76-.59.06-1.21.11-1.83.22-.7.12-1.4.24-2.1.24-.79 0-1.48-.16-2.1-.48-.08-.04-.15-.09-.22-.14l-.3-.21.21-.17c.14-.13.23-.22.35-.25l.39-.12c.4-.13.8-.26 1.23-.29.49-.04.99-.1 1.49-.15 1.11-.14 2.25-.26 3.36-.26zm9.47-4.36c.13 0 .27-.01.41-.03.2-.03.34-.1.42-.22.1-.14.12-.37.06-.63-.05-.24-.17-.5-.31-.68-.88-1.16-1.5-2.34-2.16-3.6-.89-1.67-1.77-2.57-2.7-2.76a1.66 1.66 0 00-.24-.02c-.93 0-2.43.59-2.46 1.3-.03.76.12 1.5.4 2.04.49.93 1.15 1.88 1.97 2.84.26.3.74.56 1.43.77.37.11.73.27 1.08.42.69.29 1.34.57 2.1.57zm-4.67-5.89c.47 0 3.4 3.71 3.42 3.74l.15.25-.28.05c-.08.01-.16.02-.24.02-.69 0-1.52-.49-1.99-.98-.14-.15-.26-.31-.39-.48-.11-.15-.25-.3-.38-.46-.43-.49-.88-1-.75-1.56.05-.19.15-.36.31-.52l.06-.06h.09zM397.437 38.6c-.38 0-.77-.1-1.11-.29-.83-.46-5.48-4.45-5.42-6.14.01-.26.14-.44.4-.56.11-.05.26-.08.45-.08.47 0 1.07.16 1.59.3.27.07.53.14.73.17.34.06.68.12 1.01.22 1.28.36 4.23 1.55 4.06 4.62-.02.43-.1.74-.25.98-.23.38-.58.63-1.01.74-.14.02-.29.04-.45.04zm-4.55-5.31l-.05.11.08.1c.25.33.49.63.73.92.02.03 2.42 2.67 3.69 2.67a.7.7 0 00.61-.32c.16-.26.12-.6-.11-1.01-.55-.94-1.31-1.37-2.11-1.82l-.25-.15c-.34-.2-.69-.4-1.07-.52-.15-.05-1.07-.1-1.26-.1h-.15l-.11.12zm12.65-3.23c-.25 0-.5 0-.74-.01-1.19-.03-2.39-.24-3.51-.46-1.43-.28-2.84-.65-4.04-.97-.77-.21-1.67-.47-2.49-.87-.26-.12-.76-.7-.75-.86.06-.12.67-.51.88-.63.09-.06.17-.1.21-.13a9.299 9.299 0 012.83-1.31c1.01-.28 2.1-.41 3.35-.41.86 0 1.77.06 2.89.19 1.69.2 3.44.41 5.04 1.13.63.28 1.26 1.76 1.18 2.78-.06.74-.56 1.26-1.32 1.35-1.21.12-2.4.2-3.53.2zm-4.35-3.76c-.55 0-1.05.03-1.53.09-.61.08-1.17.2-1.7.39l-.5.17.49.2c1.27.53 2.46.64 3.72.76.59.06 1.21.11 1.83.22.7.12 1.4.24 2.1.24.79 0 1.48-.16 2.1-.48.08-.04.15-.09.22-.14l.3-.21-.21-.17c-.14-.13-.23-.22-.35-.25l-.39-.12c-.4-.13-.8-.26-1.23-.29-.49-.04-.99-.1-1.49-.15-1.11-.14-2.25-.26-3.36-.26zm-9.47-4.36c-.13 0-.27-.01-.41-.03-.2-.03-.34-.1-.42-.22-.1-.14-.12-.37-.06-.63.05-.24.17-.5.31-.68.88-1.16 1.5-2.34 2.16-3.6.89-1.67 1.77-2.57 2.7-2.76.07-.01.15-.02.24-.02.93 0 2.43.59 2.46 1.3.03.76-.12 1.5-.4 2.04-.49.93-1.15 1.88-1.97 2.84-.26.3-.74.56-1.43.77-.37.11-.73.27-1.08.42-.69.29-1.34.57-2.1.57zm4.67-5.89c-.47 0-3.4 3.71-3.42 3.74l-.15.25.28.05c.08.01.16.02.24.02.69 0 1.52-.49 1.99-.98.14-.15.26-.31.39-.48.11-.15.25-.3.38-.46.43-.49.88-1 .75-1.56-.05-.19-.15-.36-.31-.52l-.06-.06h-.09zM217.127 39.418c.238-.31.432-.505.555-.743.85-1.63 1.599-3.319 2.543-4.884 1.008-1.674 1.268-3.607 2.06-5.346.699-1.544.843-3.253 1.527-4.804.187-.426.526-.91.98-.83.216.036.382.195.555.325 1.296.96 2.261.39 3.342 1.912.908 1.284.836 3 1.145 4.487.382 1.86.886 3.686 1.362 5.518.158.614 1.585 4.192 1.484 4.365.245-.433.454-.722.583-1.039.353-.83.706-1.66.994-2.51.252-.75.404-1.537.627-2.294.512-1.746 1.052-3.485 1.563-5.23.778-2.663 1.455-5.354 2.356-7.972.828-2.417 1.275-4.978 2.557-7.243.468-.823 1.376-1.183 1.931-.62.137.137.273.353.273.54.015 1.285.058 2.576-.028 3.853-.483 7.127-2.666 14.385-4.884 21.137-.634 1.94-1.592 3.116-2.673 4.74-1.52 2.272-4.783.83-6.152-.873-1.83-2.287-2.291-5.75-3.105-8.491-.108-.368-.252-.729-.432-1.248-.209.274-.346.397-.41.548-1.203 2.9-2.212 6.024-3.876 8.7-1.181 1.905-2.968 4.134-5.439 3.456-2.233-.614-3.112-2.785-3.565-4.884-.742-3.398-1.153-6.926-.894-10.403.072-.96.015-1.933.015-2.893l-.252-.043c-.31-.05-3.573 6.817-3.998 7.51a38.306 38.306 0 01-5.806 7.33c-2.298 2.264-5.518 3.238-8.321 1.096-1.894-1.45-2.737-4.242-2.514-6.565.072-.758-.151-.837-.915-.721a8.55 8.55 0 01-2.146.029c-.346-.037-.757-.296-.973-.585-1.008-1.342.713-2.842 1.736-3.513 1.369-.902 2.414-1.082 2.752-2.922.8-4.372 2.305-8.404 5.432-11.68.425-.44.879-.872 1.44-1.11.908-.39 1.967-.238 2.903.1 1.196.434 2.608.773 3.343 1.912.338.527.468 1.162.511 1.782.137 2.042-.648 4.047-1.75 5.764-1.362 2.114-3.134 4.307-5.208 5.757-.987.693-1.902 1.508-2.745 2.366-.295.303-.418.902-.403 1.357.057 1.45.151 2.9.367 4.328.087.599.454 1.176.792 1.703.382.591 1.564.613 2.01.108 1.102-1.234 2.248-2.424 3.292-3.701 1.182-1.436 2.349-2.9 3.386-4.444 1.138-1.702 2.089-3.52 3.155-5.266 1.52-2.482 2.543-5.18 3.552-7.885.223-.592.605-.786 1.195-.657.339.073.714.065 1.023.202.404.18.857.39 1.11.722.979 1.255.965 2.828 1.289 4.3.857 3.888.166 8.267.324 12.242.036.909.159 1.81.245 2.712.015.123.087.238.18.498zM197.346 24.96c.065.036.137.072.202.1.151-.136.331-.244.454-.403.662-.859 1.383-1.688 1.952-2.611.468-.758.771-1.624 1.095-2.46.057-.145-.115-.534-.223-.556-.202-.029-.534.065-.627.224-.742 1.183-1.484 2.373-2.125 3.614-.353.65-.497 1.392-.728 2.092zm-34.498-17.3c-.799-.252-1.779.174-2.002.996-.209.758-.339 1.544-.454 2.323-.836 5.923-1.441 11.831-1.679 17.819-.122 3.066.123 6.139.051 9.205-.058 2.546-.843 5.086.648 7.387.555.851 2.305 2.648 3.256 1.111 2.219-3.585 1.736-7.892 1.974-12.019.259-4.61.533-9.212.922-13.807.065-.75.31-1.486.468-2.23.065-.007.137-.007.202-.014.151.325.302.642.447.967 2.874 6.507 4.343 13.54 8.032 19.701 1.491 2.496 4.92 6.37 7.556 2.973 1.592-2.056 1.866-5.194 2.154-7.69 1.289-11.067 1.707-22.162 1.837-33.286.007-.606-.389-1.01-.821-1.075-.44-.072-1.102.087-1.376.404-.634.729-1.203 1.558-1.578 2.438-1.83 4.307-1.822 9.913-2.219 14.53-.302 3.505-.533 7.019-.777 10.525-.051.757-.577 9.09-.591 9.082-1.138-.425-2.075-3.441-2.536-4.617-1.858-4.783-3.256-9.717-5.208-14.471-1.383-3.37-2.492-7.315-5.842-9.212-.721-.412-1.52-.744-2.464-1.04zm-22.806 38.386c-.692 0-1.297-.36-1.916-1.125-1.326-1.66-1.895-3.715-2.075-5.8-.18-2.063.209-4.328-.418-6.327-.014-.043-.029-.093-.058-.13-.086-.115-.273-.093-.389-.007-.115.094-.165.231-.223.361-.547 1.291-1.397 2.431-2.017 3.672-1.016 2.027-2.175 3.968-3.364 5.894-.367.591-.742 1.204-1.282 1.637-.821.65-1.945.801-2.716.859-.158.014-.31.014-.454.014-1.426 0-2.6-.52-3.486-1.536-1.686-1.934-1.931-5.166-1.635-7.344.713-5.223 3.147-10.583 6.713-14.457.332-.36.67-.714 1.074-.974 1.188-.758 2.867-.577 4.206-.758 1.11-.144 2.45.26 3.148-.865.872-1.421 2.068-2.972 3.962-1.768.397.253 1.139.462 1.247.96.324 1.515.158 3.152.223 4.696.065 1.717-.317 11.586-.375 14.789-.021 1.27-.05 2.525.18 3.787a8.97 8.97 0 00.548 1.912c.151.368.936 1.263.936 1.587-.007.065-.136.411-.223.469-.648.31-1.16.454-1.606.454zm-7.305-21.706c-.943-.051-2.399 1.204-2.903 1.81-.086.108-.173.21-.259.31-2.709 3.153-3.94 6.904-5.014 10.836-.18.656-.266 1.356-.093 2.013.064.245.172.49.345.663 1.924 1.926 3.905-3.585 4.431-4.602a136.54 136.54 0 003.853-8.022c.253-.577.512-1.19.476-1.818-.043-.837-.382-1.162-.836-1.19zm-77.28 2.46c-.28-3.68-.59-7.359-.763-11.045-.094-2.063-.101-4.134-.13-6.204-.022-1.457.1-3.636-.41-5.014-.166-.447-.62-.743-1.088-.851-1.21-.274-2.435.151-2.932 1.313-2.565 5.886-5.497 11.614-7.917 17.573-.72 1.804-8.363 22.024-5.626 22.573 1.189.238 1.866.562 2.565-.599.756-1.248 1.152-2.936 1.7-4.3.223-.555.439-1.11.655-1.666.151-.397.295-.794.432-1.19.677-1.97 1.311-3.932 2.09-5.865.31-.765.547-1.566.993-2.244.094-.137.93.289 1.434.332 1.606.144 3.227.216 4.834.368.187.014.453.325.49.534.107.54.064 1.118.158 1.666.699 4.213 1.275 8.34 2.413 12.48 0 1.378 1.614 1.544 2.55 1.688.159.022.331.044.476-.036.209-.122.237-.404.245-.642.072-3.996-.987-7.885-1.506-11.83-.317-2.338-.483-4.697-.663-7.041zm-3.652.108c-.562 1.06-4.567.822-5.662.902-.072.007-.31-.506-.238-.679a145.268 145.268 0 012.277-5.194c.785-1.68 1.62-3.34 2.434-5.014.087-.014.166-.021.252-.036 0 1.032-.035 2.07.015 3.102.072 1.544.36 3.232.605 4.762.08.505.57 1.673.317 2.157zm55.921 18.251c-.569.087-1.131.31-1.7.303-.432 0-1.051-.144-1.253-.447-.461-.671-.886-1.465-1.016-2.25-1.26-7.734-.317-14.551.562-22.314.353-3.11.886-6.16 1.542-9.22.381-1.788 1.239-5.114-.62-6.405-.627-.433-1.405-.592-2.168-.592-.13 0-.267.007-.367.087-.721.555-.908 4.003-1.031 4.826-.223 1.53-.655 3.023-.943 4.545-.339 1.825-.598 3.664-.922 5.497-.094.555-.281 1.096-.447 1.745-.562-.331-.915-.505-1.232-.735-3.803-2.8-8.046 2.525-9.703 5.49a36.983 36.983 0 00-3.343 8.144c-.72 2.583-.756 5.396-1.8 7.813-.173.404-.339.83-.649 1.147-.59.606-1.844.599-1.995-.353-.036-.217-.015-.448-.043-.671-.872-6.717-.497-13.253.151-20.005.367-3.838.339-7.755 1.246-11.52.44-1.833 1.066-2.908.447-4.726-.497-1.457-1.369-3.188-3.27-2.532a.799.799 0 00-.346.202c-.087.094-.123.224-.166.346-.764 2.504-.821 5.014-1.131 7.582-.317 2.612-.75 5.209-1.239 7.799-.173.894-.382 1.789-.598 2.763-3.883-2.965-7.686-.75-10.143 2.813-1.31 1.904-2.182 4.076-2.946 6.255-1.059 3.008-1.938 6.139-1.916 9.327.014 2.244 1.39 5.894 4.221 5.656.894-.08 1.693-.591 2.385-1.161 3.277-2.72 4.84-6.847 6.807-10.497.497-.916 1.045-1.796 1.57-2.69.18.786.166 1.522.18 2.25.087 3.485-.266 7.835 1.362 11.002.173.331.36.663.656.894.273.217.62.332.958.411 1.282.296 2.643-.216 3.645-1.024.511-.411.763-1.133 1.231-1.623.087-.094.152-.173.202-.253.57 2.258 2.565 4.148 5.115 3.492.907-.238 1.714-.772 2.434-1.378 3.775-3.189 5.8-8.224 7.896-12.574.028-.065.144-.087.259-.144.065 1.118-.555 2.164-.49 3.217.101 1.602.137 1.868.339 3.463.201 1.637.49 3.268.907 4.862.188.714.699 1.421 1.254 1.933.778.715 1.714 1.277 2.629 1.833.223.137.641-.022.958-.087.151-.029.281-.23.432-.245 1.275-.144 1.801-1.24 2.745-2.063-.303-.108-.49-.217-.656-.188zM74.979 24.795c-.922 2.207-1.902 4.393-2.882 6.58a26.074 26.074 0 01-1.138 2.236 724.751 724.751 0 01-4.127 7.279c-.49.85-1.023 1.68-1.614 2.64-.728-.866-.67-1.696-.663-2.46 0-.83.166-1.66.267-2.489.223-1.84.727-3.593 1.405-5.317.41-1.046.727-2.128 1.145-3.174.266-.678.555-1.378.98-1.962 1.123-1.544 2.34-3.016 3.5-4.53.469-.614 1.139-.722 1.794-.62.706.107 1.398.497 1.772-.6.065.065.137.13.202.195-.209.736-.346 1.515-.641 2.222zm23.412.144c-.281.902-.642 1.782-.973 2.662-.18.484-.389.953-.59 1.429-.318.735-.656 1.457-.952 2.207-.425 1.104-.893 2.15-1.606 3.138-.98 1.356-1.685 2.922-2.478 4.408-.468.88-.8 1.847-1.347 2.67-.533.807-1.21 1.492-1.592 2.43-.252.613-.792.476-1.153-.158-.533-.938-.172-1.912-.014-2.821.317-1.804.792-3.557 1.614-5.238 1.037-2.12 1.786-4.378 2.809-6.506.59-1.227 1.44-2.338 2.226-3.47.497-.722 1.03-1.443 1.657-2.042.353-.34.929-.476 1.433-.62.41-.116.858-.109 1.42-.166-.16.757-.253 1.435-.454 2.077zm281.508 9.249a.51.51 0 00-.194-.174c-.634-.36-2.341 1.248-2.817 1.624-.994.793-1.945 1.666-3.025 2.33-1.376.837-2.86 1.493-4.286 2.236-2.003 1.039-3.739.318-4.315-1.796a1.808 1.808 0 01-.058-.39c-.065-1.06-.043-2.142-.216-3.188-.122-.758.144-1.306.605-1.768.857-.851 1.837-1.58 2.644-2.467 1.484-1.623 3.169-3.968 3.645-6.168.389-1.796-.612-3.225-2.197-3.975-2.039-.952-3.811-1.046-5.021 1.01-1.859 3.167-2.946 6.788-3.631 10.374-.151.793-.302 1.623-1.21 2.034-.857.39-1.657.91-2.471 1.385-.281.159-.533.354-.886.592 0-.217-.029-.303.007-.36 1.888-3.832 2.255-8.542.288-12.409-2.038-4.004-6.872-4.415-9.386-.534-1.188 1.84-2.391 3.68-3.105 5.757-.158.469-.216.974-.389 1.436-.417 1.075-.893 2.128-1.325 3.195-.094.231-.101.498-.18.902 0-2.482.187-4.956.245-7.438.043-1.832.519-4.97-.663-6.47-.166-.217-.497-.303-.67-.52-.338-.425-1.851-.627-2.197-.23-.216.245-.353.548-.583.908-.123.47-.303 1.154-.469 1.84-.626 2.626-1.714 5.107-3.032 7.46-1.203 2.156-2.125 4.674-3.624 6.629-1.145 1.5-2.06 3.13-3.213 4.624-.338.44-1.246 1.695-1.865 1.313-.418-.26-.577-1.912-.577-2.366-.028-6.11 1.42-12.055 1.737-18.144.05-1.017.028-2.683-.778-3.491-1.074-1.082-2.947-.7-3.134.894-.036.332-.187.65-.331.96-1.477 3.246-2.356 6.745-3.948 9.948-1.369 2.756-3.501 5.476-5.532 7.791-.973 1.111-6.411 4.884-7.319 1.775-.346-1.169-1.066-2.222-.879-3.578.202-1.414.122-2.864.195-4.293.129-2.416.518-5.908 1.952-7.957 1.829-2.626 2.687 2.655 2.881 3.542.274 1.241 1.369 1.898 2.255.722 1.073-1.414.807-3.715.065-5.18a65.884 65.884 0 00-1.045-1.977c-.706-1.276-1.952-2.957-3.58-3.008-3.559-.108-5.295 3.557-6.599 6.204-.561 1.14-1.152 2.265-1.736 3.398-2.578 5.021-5.82 9.53-9.018 14.183-.454.656-.973 1.363-1.744 1.565-.835.217-1.736-.252-2.24-.952-1.081-1.493-.872-3.787-1.225-5.519-.18-.873.245-1.255.85-1.637 5.209-3.297 8.335-8.03 8.904-14.277.468-5.143-5.72-3.657-8.111-1.58-2.766 2.403-4.142 6.529-4.927 9.999-.426 1.897-.663 3.838-1.016 5.75-.036.201-.332.41-.555.512-.555.26-1.16.432-1.707.721-.944.498 1.405 1.861 2.255 1.436.482 2.135.576 3.758 1.952 5.641.526.721 1.145 1.428 1.974 1.746 1.923.736 4.48.447 6.202-.635 1.88-1.183 3.4-2.958 4.596-4.804 1.426-2.208 2.795-4.452 4.185-6.688.252-.411.483-.83.8-1.378.172.282.403.483.403.678.007.722-.079 1.436-.094 2.157-.057 2.439-.108 6.904 1.787 8.578 1.513 1.342 3.746 1.659 5.719 1.219 2.313-.52 4.157-1.97 6.116-3.196.13-.08.231-.202.332-.317a43.95 43.95 0 001.037-1.248c1.109-1.414 2.968-4.25 4.034-5.7.547-.735.965-1.572 1.441-2.358a.88.88 0 01.101.562c-.13.801-.375 1.602-.397 2.41-.057 2.64-.706 6.464.8 8.837 1.606 2.54 5.331 3.008 7.326.288a299.332 299.332 0 003.768-5.215c1.188-1.688 2.333-3.412 3.5-5.115.231-.339.483-.656.728-.981.101.988.05 1.89.007 2.792-.252 4.602-.338 9.205-.446 13.807-.058 2.302-.116 4.603-.202 6.904-.058 1.537-.728 3.355-.238 4.87.432 1.334 2.349 3.376 3.768 2.56 2.017-1.154 1.988-5.85 2.283-7.855.613-4.134 1.074-8.282 1.549-12.43 1.549.418 3.22 1.09 4.841.62 1.498-.433 3.047-1.745 3.983-2.958.62-.793 1.585-.83 2.493-1.248 1.657-.764 3.22-1.71 4.819-2.575.692 3.246 1.347 5.908 5.136 6.58 1.967.346 4.013-.116 5.835-.96 1.995-.924 3.933-2.049 5.619-3.47.929-.78 1.938-1.796 2.492-2.879.173-.331.526-1.038.252-1.442zm-12.916-9.819c.216-.295.613-.577.915-.367.296.209.18.663.015.98a7.372 7.372 0 01-1.153 1.624l.555-.448c-.137.383-.562.65-.966.592a3.504 3.504 0 01.634-2.38zm-78.843 1.263c.742-1.566 1.643-3.023 3.163-4.083.259 3.145-2.183 7.863-4.827 9.032.339-1.775.929-3.39 1.664-4.95zm59.826 14.594c-.072-.065-.144-.13-.223-.195.36-.36.23-1.19 1.368-1.032-.454.484-.799.859-1.145 1.227zm5.626-10.453c-.476 2.315-1.304 4.516-2.601 6.507-.151.238-.576.512-.785.454-1.462-.418-2.852-.166-4.25.267-.094.029-.209-.007-.468-.021.151-.78.238-1.487.425-2.157.562-1.963 1.037-3.961 1.786-5.858.757-1.905 1.628-3.81 3.084-5.31.446-.462 1.123-.757 1.743-1.003.598-.238 1.044.18 1.095.837.072.873.281 1.753.266 2.626-.007 1.22-.05 2.467-.295 3.658zM326.37 11.42c1.793.78 2.47.505 3.176-1.277.281-.7-.245-1.659-1.001-1.738-.85-.094-1.7-.108-2.442-.152-.655.238-1.678.47-1.549 1.37.152 1.069.994 1.444 1.816 1.797zm-49.453 32.507c-.584.26-.987.1-1.268-.448-.663-1.27-1.412-2.496-1.966-3.809-1.441-3.412-2.911-6.817-5.41-9.602-.685-.764-.368-1.147.144-1.623 1.592-1.479 3.313-2.842 4.783-4.436 1.967-2.128 3.508-4.516 3.595-7.597.043-1.486.165-2.914-.26-4.415-.814-2.864-2.291-5.302-4.833-6.716-3.653-2.034-7.521-2.359-11.288-.072-1.103.67-2.147 1.45-3.177 2.222-.13.1-.101.678-.079.685 1.015.195 2.009.707 3.068 0 .865-.584 1.801-1.082 2.752-1.522 2.212-1.024 4.358-.411 6.08.938 2.55 1.998 4.012 4.74 3.594 8.108-.201 1.652-.597 3.319-1.829 4.61-1.254 1.306-2.449 2.677-3.768 3.91-1.318 1.234-2.766 2.337-4.156 3.499a9 9 0 00-.324-.23c-.044-.34-.13-.679-.13-1.018-.014-1.76-.043-3.52 0-5.274.058-2.142.158-4.285.274-6.427.05-.952-.663-2.33-1.34-2.46-1.426-.274-3.069.88-3.155 2.316-.072 1.248-.015 2.503-.015 3.758 0 1.68.051 3.369-.021 5.043-.08 1.962-.361 3.924-.368 5.886-.007 2.85.159 5.692.238 8.542.058 1.94.086 3.88.151 5.829.022.67.029 1.356.159 2.012.108.534.252 1.227.626 1.5.512.361 1.261.42 1.924.556 1.232.253 2.42-.851 2.348-2.099a585.681 585.681 0 01-.41-7.979 242.02 242.02 0 01-.217-6.427c0-.137.418-.44.541-.397.425.159.915.353 1.174.692.994 1.285 2.031 2.561 2.817 3.968a53.451 53.451 0 012.953 6.14c.8 1.99 2.147 3.462 3.695 4.833.685.598 1.333.151 2.025.086.821-.072 1.131-.52 1.34-1.176.086-.281.165-.57.237-.865.043-.18.051-.376.079-.563-.201-.007-.425-.05-.583.022z" fill="#fff"/></svg>