<svg xmlns="http://www.w3.org/2000/svg" width="21" height="21" viewBox="0 0 21 21">
    <path fill="#909090" fill-rule="evenodd" d="M13.72 13.287h-.008c-3.304 0-5.993-2.694-5.998-6.008a5.957 5.957 0 0 1 1.753-4.244 5.972 5.972 0 0 1 4.254-1.763 6.015 6.015 0 0 1 6.007 6.007c0 3.306-2.696 6.001-6.008 6.008zM2.987 19.202l-1.189-1.187 6.224-6.224c.348.441.746.84 1.186 1.189l-6.22 6.222zM13.721 0a7.23 7.23 0 0 0-5.153 2.137A7.216 7.216 0 0 0 6.442 7.28a7.252 7.252 0 0 0 .865 3.429L0 18.015 2.987 21l7.303-7.304c1.02.55 2.185.862 3.422.862h.01C17.734 14.552 21 11.286 21 7.278 21 3.266 17.734 0 13.721 0z"/>
</svg>
