<svg xmlns="http://www.w3.org/2000/svg" width="49" height="49"><g fill="none" fill-rule="evenodd"><path fill="#444" fill-rule="nonzero" d="M24.5 49c.467 0 .933-.013 1.398-.04l-.038-.708c-.452.025-.905.038-1.36.038V49zm2.793-.158a24.48 24.48 0 0 0 1.386-.197l-.113-.7c-.447.076-.896.14-1.348.192l.075.705zm2.77-.477a23.92 23.92 0 0 0 1.357-.356l-.19-.683c-.435.128-.875.244-1.318.347l.152.692zm2.69-.79c.44-.158.877-.328 1.308-.511l-.263-.657c-.419.178-.843.344-1.272.498l.226.67zm2.598-1.103c.42-.208.836-.429 1.244-.66l-.334-.622c-.397.225-.8.44-1.21.642l.3.64zm2.468-1.405a25.01 25.01 0 0 0 1.163-.803l-.401-.578c-.37.27-.746.531-1.13.78l.368.6zm2.259-1.656c.364-.3.72-.612 1.066-.933l-.461-.528c-.337.312-.683.614-1.037.906l.432.555zm2.087-1.935c.329-.342.647-.693.956-1.053l-.518-.47c-.3.35-.61.692-.928 1.024l.49.5zm1.86-2.174c.288-.38.564-.766.83-1.161l-.568-.404c-.258.384-.526.76-.806 1.127l.544.438zm1.603-2.39c.242-.411.472-.83.69-1.254l-.61-.332a23.95 23.95 0 0 1-.67 1.218l.59.368zm1.317-2.573c.192-.439.371-.882.538-1.331l-.645-.253c-.162.435-.336.866-.522 1.291l.629.293zm1.007-2.728c.139-.458.264-.921.376-1.388l-.67-.17c-.108.453-.23.902-.365 1.347l.659.211zm.654-2.708c.085-.472.157-.947.215-1.425l-.685-.088a23.73 23.73 0 0 1-.209 1.383l.679.13zm.347-2.872c.03-.478.045-.959.047-1.44l-.69-.003a24.13 24.13 0 0 1-.046 1.398l.69.045zm.01-2.889a24.65 24.65 0 0 0-.12-1.435l-.686.082c.053.462.092.927.117 1.393l.69-.04zm-.326-2.866a24.37 24.37 0 0 0-.288-1.41l-.67.166c.106.453.2.91.279 1.37l.68-.126zm-.665-2.822a24.31 24.31 0 0 0-.453-1.363l-.646.25c.16.436.306.877.44 1.322l.659-.209zm-.983-2.69a24.33 24.33 0 0 0-.608-1.298l-.613.327c.21.414.406.834.59 1.26l.631-.29zm-1.302-2.574c-.24-.412-.491-.817-.755-1.214l-.57.4c.256.386.5.779.733 1.179l.592-.365zM44.09 9.785c-.285-.38-.582-.75-.888-1.113l-.52.467c.297.351.585.712.863 1.08l.545-.434zm-1.81-2.142a24.651 24.651 0 0 0-1.007-1.001l-.466.524c.336.315.662.64.979.973l.493-.496zm-2.078-1.95a24.61 24.61 0 0 0-1.112-.877l-.403.576c.368.274.728.557 1.08.851l.435-.55zm-2.287-1.697a24.505 24.505 0 0 0-1.201-.739l-.337.62c.396.228.785.467 1.167.718l.371-.599zM35.452 2.58c-.419-.21-.844-.408-1.275-.594l-.267.655c.42.18.833.373 1.24.577l.302-.638zm-2.61-1.122c-.44-.159-.884-.306-1.333-.44l-.192.683c.437.13.869.272 1.296.427l.23-.67zm-2.681-.8a24.37 24.37 0 0 0-1.373-.283l-.116.7c.448.08.893.171 1.334.275l.155-.692zm-2.695-.48A24.624 24.624 0 0 0 26.072.05l-.042.708c.454.03.906.07 1.356.125l.08-.705zM24.661.002L24.5 0c-.414 0-.826.01-1.237.03l.033.71c.4-.02.801-.03 1.204-.03h.157l.004-.71zM21.867.14c-.466.05-.929.112-1.389.188l.11.702c.447-.074.897-.135 1.35-.184L21.867.14zm-2.772.458c-.457.103-.91.219-1.359.347l.185.685c.437-.126.877-.238 1.321-.338l-.147-.694zM16.4 1.37c-.442.155-.88.322-1.311.502l.258.658c.42-.174.846-.337 1.276-.488L16.4 1.37zm-2.607 1.086a24.43 24.43 0 0 0-1.248.652l.33.624c.398-.223.803-.434 1.213-.634l-.295-.642zm-2.476 1.388c-.397.254-.787.52-1.168.795l.397.581c.37-.268.75-.526 1.135-.772l-.364-.604zm-2.269 1.64c-.367.299-.725.607-1.073.926l.458.531c.339-.31.687-.61 1.043-.9l-.428-.556zm-2.1 1.921c-.331.34-.652.689-.963 1.047l.515.473c.302-.348.613-.687.935-1.017l-.488-.503zM5.073 9.567c-.29.377-.569.762-.837 1.155l.565.408c.26-.382.532-.756.813-1.122l-.54-.441zm-1.618 2.378c-.245.41-.478.826-.698 1.25l.608.335c.214-.411.44-.815.678-1.213l-.588-.372zm-1.334 2.563c-.195.437-.377.88-.547 1.327l.643.258c.165-.435.342-.864.531-1.288l-.627-.297zm-1.025 2.718c-.143.458-.271.92-.386 1.387l.669.174c.111-.452.236-.9.374-1.345l-.657-.216zm-.673 2.706c-.09.471-.164.946-.225 1.423l.684.093c.06-.463.132-.923.218-1.38l-.677-.136zm-.367 2.869A24.83 24.83 0 0 0 0 24.24l.69.008c.005-.468.023-.934.055-1.398l-.688-.05zm-.03 2.89c.023.482.06.96.111 1.438l.686-.078c-.05-.462-.085-.928-.108-1.395l-.689.035zm.307 2.87c.079.474.172.945.278 1.412l.672-.162a24.2 24.2 0 0 1-.27-1.37l-.68.12zm.646 2.824c.134.46.282.917.443 1.368l.648-.246c-.156-.437-.3-.88-.43-1.326l-.661.204zm.963 2.697c.188.44.388.874.6 1.303l.615-.324c-.207-.415-.4-.837-.582-1.264l-.633.285zm1.285 2.584c.237.414.486.82.747 1.22l.573-.397a23.788 23.788 0 0 1-.725-1.184l-.595.361zm1.58 2.415c.283.381.577.755.882 1.12l.523-.463a23.902 23.902 0 0 1-.856-1.088l-.549.43zm1.798 2.155c.324.346.657.682 1 1.009l.469-.521a23.951 23.951 0 0 1-.972-.98l-.497.492zm2.065 1.965c.36.305.728.6 1.105.884l.408-.573a23.921 23.921 0 0 1-1.075-.859l-.438.548zm2.274 1.711c.392.261.79.51 1.197.748l.34-.617a24.021 24.021 0 0 1-1.162-.727l-.375.596zm2.454 1.435c.418.213.842.414 1.272.602l.27-.653c-.417-.183-.83-.379-1.236-.585l-.306.636zM16 47.486c.439.162.882.312 1.33.448l.197-.68a23.637 23.637 0 0 1-1.293-.437l-.234.669zm2.688.82c.453.11.91.208 1.37.293l.122-.7a23.688 23.688 0 0 1-1.333-.283l-.159.69zm2.684.496c.462.06.927.105 1.393.138l.047-.709a23.93 23.93 0 0 1-1.355-.133l-.085.704zm2.802.196l.324.002v-.71c-.105 0-.21 0-.315-.002l-.009.71z"/><path d="M17.736 21.572c-1.263.02-2.605.45-3.54 1.034l.572-4.63 7.022-.112c.487-.008.588-.19.75-.709l.554-1.684-8.683.009-1.07 8.03.245.177.02.015.217.157.145-.138c.65-.616 1.835-1.357 3.78-1.388 2.734-.043 3.189 2.922 3.217 4.693.044 2.74-.93 5.685-3.793 5.73-2.036.033-2.175-.957-2.337-2.103l-.037-.26c-.165-.784-.69-1.228-1.44-1.216-.746.012-1.3.573-1.288 1.306.028 1.747 2.274 3.08 5.113 3.036 4.077-.065 6.899-2.745 6.863-6.52-.065-4.079-3.44-5.473-6.31-5.427m9.933 9.13l2.772-2.611c3.024-2.775 5.038-5.22 5.038-8.136 0-3.274-2.79-4.74-5.553-4.74-3.368 0-4.623 1.784-4.623 2.909 0 .798.544 1.4 1.265 1.4.74 0 1.24-.504 1.372-1.385l.025-.167c.142-.98.29-1.994 1.939-1.994 1.795 0 2.632 1.249 2.632 3.93 0 2.646-.918 4.739-3.387 7.724l-4.638 5.664H35.14c.511 0 .62-.188.8-.722l.653-1.872h-8.924z" fill="#2D4558"/></g></svg>