<svg xmlns="http://www.w3.org/2000/svg" width="234" height="337" viewBox="0 0 234 337">
    <g fill="none" fill-rule="evenodd" opacity=".101">
        <path fill="#FFFFFC" d="M87.438 219.44l23.78-20.98c25.944-22.3 43.226-41.95 43.226-65.375 0-26.309-23.93-38.085-47.645-38.085-28.89 0-39.657 14.334-39.657 23.369 0 6.416 4.667 11.258 10.855 11.258 6.337 0 10.627-4.06 11.764-11.134l.214-1.344c1.223-7.88 2.484-16.025 16.637-16.025 15.405 0 22.584 10.037 22.584 31.589 0 21.254-7.875 38.071-29.059 62.056l-39.791 45.515h91.184c4.39 0 5.327-1.51 6.874-5.803L164 219.44H87.438zm-74.926-73.618c-10.142.163-20.926 3.62-28.433 8.327l4.598-37.274 56.406-.897c3.91-.063 4.72-1.536 6.032-5.704l4.446-13.558-69.758.071-8.589 64.64 1.96 1.424.165.122 1.74 1.264 1.172-1.112c5.225-4.96 14.738-10.92 30.36-11.17 21.963-.349 25.622 23.514 25.847 37.77.351 22.063-7.471 45.766-30.477 46.132-16.352.262-17.47-7.707-18.767-16.932l-.303-2.087c-1.32-6.32-5.535-9.892-11.562-9.795-5.992.095-10.441 4.614-10.348 10.511.224 14.068 18.266 24.801 41.077 24.437 32.748-.52 55.416-22.095 55.129-52.474-.522-32.838-27.637-44.063-50.695-43.695z"/>
        <path stroke="#FFFFFC" stroke-dasharray="4,8" stroke-width="4" d="M65.5 335c91.955 0 166.5-74.545 166.5-166.5S157.455 2 65.5 2-101 76.545-101 168.5-26.455 335 65.5 335z"/>
    </g>
</svg>
