<svg xmlns="http://www.w3.org/2000/svg" width="502" height="513" viewBox="0 0 502 513">
    <g fill="none" fill-rule="evenodd" opacity=".121">
        <path fill="#FFFFFC" d="M279.02 334.47l36.334-32.113c39.64-34.133 66.045-64.21 66.045-100.063 0-40.27-36.562-58.294-72.798-58.294-44.14 0-60.592 21.94-60.592 35.768 0 9.821 7.13 17.232 16.586 17.232 9.682 0 16.237-6.213 17.974-17.04l.327-2.058c1.868-12.06 3.795-24.53 25.42-24.53 23.537 0 34.507 15.364 34.507 48.352 0 32.532-12.033 58.272-44.4 94.984l-60.798 69.666h139.322c6.708 0 8.138-2.312 10.503-8.883L396 334.47H279.02zM164.538 221.789c-15.496.25-31.974 5.542-43.444 12.746l7.026-57.053 86.184-1.373c5.973-.096 7.211-2.35 9.216-8.73l6.793-20.753-106.584.11-13.123 98.938 2.994 2.18.252.186 2.658 1.936 1.791-1.702c7.983-7.592 22.52-16.716 46.388-17.098 33.558-.534 39.148 35.99 39.491 57.812.537 33.768-11.414 70.049-46.565 70.609-24.984.4-26.693-11.795-28.675-25.916l-.463-3.195c-2.015-9.673-8.457-15.14-17.665-14.992-9.155.146-15.954 7.063-15.81 16.089.34 21.532 27.907 37.96 62.761 37.403 50.036-.796 84.671-33.818 84.232-80.316-.796-50.264-42.227-67.444-77.457-66.881z"/>
        <path stroke="#FFFFFC" stroke-dasharray="4,8" stroke-width="4" d="M245.5 511C386.056 511 500 397.056 500 256.5 500 115.944 386.056 2 245.5 2 104.944 2-9 115.944-9 256.5-9 397.056 104.944 511 245.5 511z"/>
    </g>
</svg>
